<svg version="1.1" id="Layer_1" xmlns="http://www.w3.org/2000/svg" xmlns:xlink="http://www.w3.org/1999/xlink" x="0px" y="0px"
	 width="100%" viewBox="0 0 300 300" enable-background="new 0 0 300 300" xml:space="preserve">
<path fill="#22409A" opacity="1.000000" stroke="none" 
	d="
M136.000000,301.000000 
	C90.666664,301.000000 45.833332,301.000000 1.000000,301.000000 
	C1.000000,201.000000 1.000000,101.000000 1.000000,1.000000 
	C101.000000,1.000000 201.000000,1.000000 301.000000,1.000000 
	C301.000000,101.000000 301.000000,201.000000 301.000000,301.000000 
	C246.166672,301.000000 191.333328,301.000000 136.000000,301.000000 
M206.176514,123.339119 
	C206.912720,123.720230 208.108368,123.935478 208.314972,124.507782 
	C210.728195,131.192078 212.992554,137.930084 215.294418,144.648499 
	C220.515015,144.648499 225.442154,144.648499 230.970474,144.648499 
	C225.935226,131.454529 221.091873,118.611778 216.043060,105.850311 
	C215.678131,104.927895 213.844467,104.133598 212.647293,104.062645 
	C198.851654,103.245102 198.850067,103.285645 194.005508,116.336731 
	C193.370834,118.046555 192.713486,119.747986 192.083191,121.459404 
	C189.293167,129.035126 186.509201,136.613068 183.579834,144.579651 
	C189.097839,144.579651 193.967041,144.579651 199.011993,144.579651 
	C201.364014,137.652725 203.653320,130.910492 206.176514,123.339119 
M124.881760,132.449738 
	C126.029434,129.002243 127.177109,125.554741 128.776093,120.751541 
	C131.470016,128.593246 133.585022,135.023834 135.935211,141.367279 
	C136.424255,142.687256 137.707230,144.584305 138.755890,144.673813 
	C143.124268,145.046677 147.542892,144.830688 152.715683,144.830688 
	C149.047607,135.198975 145.709549,126.390358 142.339325,117.594048 
	C136.704773,102.887878 136.696136,102.891190 120.189377,104.289711 
	C115.280754,117.554474 110.326851,130.941589 105.277718,144.586075 
	C106.697830,144.737762 107.187279,144.827469 107.678276,144.837036 
	C120.525475,145.087616 120.525505,145.086212 124.881760,132.449738 
M64.018425,173.420593 
	C62.895969,177.277283 61.773514,181.133972 60.330517,186.091995 
	C57.752777,177.675797 55.559971,170.409851 53.299286,163.165085 
	C51.004372,155.810638 49.487869,155.093155 41.374264,157.460678 
	C40.577400,170.504242 39.777020,183.605423 38.966946,196.865204 
	C41.413345,196.865204 43.606834,196.865204 45.902683,196.865204 
	C46.373066,187.337387 46.824677,178.189728 47.347374,167.602188 
	C48.563244,170.407913 49.346554,171.824615 49.803944,173.339691 
	C51.627186,179.379089 53.189243,185.502655 55.192944,191.479431 
	C55.915703,193.635330 55.230511,196.983109 59.473186,197.064072 
	C63.560562,197.142059 63.308655,194.127548 64.099113,191.839478 
	C66.889420,183.762665 69.561691,175.645065 72.278725,167.542938 
	C72.556046,167.579468 72.833366,167.616013 73.110687,167.652557 
	C73.536270,177.335419 73.961845,187.018295 74.399185,196.968719 
	C76.862389,196.968719 79.106537,196.968719 81.670235,196.968719 
	C80.929367,183.489044 80.203445,170.281219 79.484009,157.191422 
	C70.069588,155.615417 70.069077,155.615234 67.284378,163.690445 
	C66.255783,166.673233 65.230240,169.657089 64.018425,173.420593 
M160.518341,103.983757 
	C156.746582,103.983757 152.974823,103.983757 149.289093,103.983757 
	C149.289093,108.338043 149.289093,112.068588 149.289093,116.183884 
	C153.058456,116.183884 156.491669,116.183884 160.385712,116.183884 
	C160.385712,125.827950 160.385712,135.084122 160.385712,144.565201 
	C165.915237,144.565201 170.967255,144.565201 176.505188,144.565201 
	C176.505188,135.023865 176.505188,125.764618 176.505188,115.988831 
	C180.379501,115.988831 183.794601,115.988831 187.308197,115.988831 
	C187.308197,111.721565 187.308197,107.985802 187.308197,103.983757 
	C178.487488,103.983757 169.999649,103.983757 160.518341,103.983757 
M82.514313,103.998085 
	C78.722466,103.998085 74.930618,103.998085 70.979332,103.998085 
	C70.979332,108.187119 70.979332,111.901764 70.979332,116.181641 
	C74.796234,116.181641 78.350250,116.181641 82.287132,116.181641 
	C82.287132,125.996246 82.287132,135.245132 82.287132,144.474030 
	C87.760818,144.474030 92.817200,144.474030 98.285233,144.474030 
	C98.285233,134.857864 98.285233,125.599327 98.285233,115.864014 
	C102.111725,115.864014 105.520668,115.864014 108.799133,115.864014 
	C108.799133,111.646362 108.799133,107.928574 108.799133,103.998085 
	C100.122444,103.998085 91.815735,103.998085 82.514313,103.998085 
M194.806152,166.887878 
	C191.581268,159.859344 186.132721,156.117172 178.374252,156.012405 
	C164.987579,155.831635 156.434448,168.536377 159.884430,183.375885 
	C162.031235,192.609985 168.958786,198.171234 178.055725,197.963303 
	C187.131287,197.755829 194.583481,191.896744 195.794052,182.835052 
	C196.454865,177.888519 195.346848,172.705704 194.806152,166.887878 
M113.129456,196.897583 
	C127.913445,191.916077 128.310608,170.473679 120.894493,162.340607 
	C118.853828,160.102676 116.064644,158.169662 113.239159,157.097931 
	C105.665428,154.225128 97.417488,156.786026 92.627266,162.918777 
	C86.962021,170.171814 86.532104,182.408249 91.670059,190.163116 
	C96.064087,196.795151 103.325897,199.225250 113.129456,196.897583 
M202.956100,165.570404 
	C202.956100,176.013153 202.956100,186.455902 202.956100,196.891785 
	C205.632858,196.891785 207.710403,196.891785 210.304626,196.891785 
	C210.304626,191.372742 210.304626,186.131409 210.304626,180.976913 
	C217.376221,180.014984 219.377655,181.299011 220.878387,187.370682 
	C221.197510,188.661850 221.466476,189.965424 221.787567,191.256058 
	C223.425186,197.838821 223.428513,197.837997 231.194977,196.565582 
	C228.921753,190.011078 226.687363,183.568497 224.370804,176.889023 
	C228.207779,174.639008 230.362152,170.560440 229.311630,164.922501 
	C228.346222,159.741394 224.781815,156.968506 220.045609,156.469772 
	C214.509796,155.886810 208.865540,156.333527 202.956100,156.333527 
	C202.956100,159.626907 202.956100,162.111252 202.956100,165.570404 
M254.659424,183.328491 
	C256.045715,188.942505 253.730530,192.090851 247.986603,191.747925 
	C244.943176,191.566238 241.953506,190.483582 238.571487,189.725113 
	C238.140457,191.733276 237.743530,193.582535 237.349365,195.418915 
	C242.994644,198.173111 248.296646,198.780197 253.817459,197.246155 
	C258.951477,195.819580 262.242584,192.598572 262.934448,187.221573 
	C263.630768,181.810089 261.216248,177.849640 256.517120,175.320480 
	C253.891769,173.907486 250.866852,173.120667 248.490784,171.403122 
	C246.995377,170.322189 245.222687,167.679321 245.630859,166.386307 
	C246.183105,164.636932 248.580338,162.580521 250.415756,162.328461 
	C253.371124,161.922546 256.514191,162.883469 259.883270,163.305191 
	C260.334259,161.625793 260.821533,159.811325 261.576447,157.000168 
	C256.843750,156.661804 252.906082,155.921768 249.045578,156.211182 
	C243.178284,156.651093 238.832336,160.645309 237.986435,165.440231 
	C237.000290,171.030136 239.363800,175.119629 245.328033,178.181305 
	C248.260788,179.686844 251.180328,181.218079 254.659424,183.328491 
M138.961746,185.484131 
	C138.961746,189.268539 138.961746,193.052948 138.961746,196.913940 
	C141.580887,196.913940 143.654907,196.913940 146.209015,196.913940 
	C146.209015,185.592148 146.209015,174.517624 146.209015,162.913681 
	C150.244339,162.913681 153.816162,162.913681 157.377319,162.913681 
	C157.377319,160.631683 157.377319,158.896851 157.377319,157.075027 
	C147.310486,157.075027 137.572556,157.075027 127.666519,157.075027 
	C127.666519,159.126648 127.666519,160.864639 127.666519,163.098206 
	C131.507309,163.098206 135.082626,163.098206 138.961746,163.098206 
	C138.961746,170.557678 138.961746,177.523819 138.961746,185.484131 
z"/>
<path fill="#FAFBFD" opacity="1.000000" stroke="none" 
	d="
M206.059570,123.753693 
	C203.653320,130.910492 201.364014,137.652725 199.011993,144.579651 
	C193.967041,144.579651 189.097839,144.579651 183.579834,144.579651 
	C186.509201,136.613068 189.293167,129.035126 192.083191,121.459404 
	C192.713486,119.747986 193.370834,118.046555 194.005508,116.336731 
	C198.850067,103.285645 198.851654,103.245102 212.647293,104.062645 
	C213.844467,104.133598 215.678131,104.927895 216.043060,105.850311 
	C221.091873,118.611778 225.935226,131.454529 230.970474,144.648499 
	C225.442154,144.648499 220.515015,144.648499 215.294418,144.648499 
	C212.992554,137.930084 210.728195,131.192078 208.314972,124.507782 
	C208.108368,123.935478 206.912720,123.720230 206.059570,123.753693 
z"/>
<path fill="#FAFBFD" opacity="1.000000" stroke="none" 
	d="
M124.750290,132.822266 
	C120.525505,145.086212 120.525475,145.087616 107.678276,144.837036 
	C107.187279,144.827469 106.697830,144.737762 105.277718,144.586075 
	C110.326851,130.941589 115.280754,117.554474 120.189377,104.289711 
	C136.696136,102.891190 136.704773,102.887878 142.339325,117.594048 
	C145.709549,126.390358 149.047607,135.198975 152.715683,144.830688 
	C147.542892,144.830688 143.124268,145.046677 138.755890,144.673813 
	C137.707230,144.584305 136.424255,142.687256 135.935211,141.367279 
	C133.585022,135.023834 131.470016,128.593246 128.776093,120.751541 
	C127.177109,125.554741 126.029434,129.002243 124.750290,132.822266 
z"/>
<path fill="#F7F8FB" opacity="1.000000" stroke="none" 
	d="
M64.110870,173.030518 
	C65.230240,169.657089 66.255783,166.673233 67.284378,163.690445 
	C70.069077,155.615234 70.069588,155.615417 79.484009,157.191422 
	C80.203445,170.281219 80.929367,183.489044 81.670235,196.968719 
	C79.106537,196.968719 76.862389,196.968719 74.399185,196.968719 
	C73.961845,187.018295 73.536270,177.335419 73.110687,167.652557 
	C72.833366,167.616013 72.556046,167.579468 72.278725,167.542938 
	C69.561691,175.645065 66.889420,183.762665 64.099113,191.839478 
	C63.308655,194.127548 63.560562,197.142059 59.473186,197.064072 
	C55.230511,196.983109 55.915703,193.635330 55.192944,191.479431 
	C53.189243,185.502655 51.627186,179.379089 49.803944,173.339691 
	C49.346554,171.824615 48.563244,170.407913 47.347374,167.602188 
	C46.824677,178.189728 46.373066,187.337387 45.902683,196.865204 
	C43.606834,196.865204 41.413345,196.865204 38.966946,196.865204 
	C39.777020,183.605423 40.577400,170.504242 41.374264,157.460678 
	C49.487869,155.093155 51.004372,155.810638 53.299286,163.165085 
	C55.559971,170.409851 57.752777,177.675797 60.330517,186.091995 
	C61.773514,181.133972 62.895969,177.277283 64.110870,173.030518 
z"/>
<path fill="#F7F8FB" opacity="1.000000" stroke="none" 
	d="
M161.015076,103.983757 
	C169.999649,103.983757 178.487488,103.983757 187.308197,103.983757 
	C187.308197,107.985802 187.308197,111.721565 187.308197,115.988831 
	C183.794601,115.988831 180.379501,115.988831 176.505188,115.988831 
	C176.505188,125.764618 176.505188,135.023865 176.505188,144.565201 
	C170.967255,144.565201 165.915237,144.565201 160.385712,144.565201 
	C160.385712,135.084122 160.385712,125.827950 160.385712,116.183884 
	C156.491669,116.183884 153.058456,116.183884 149.289093,116.183884 
	C149.289093,112.068588 149.289093,108.338043 149.289093,103.983757 
	C152.974823,103.983757 156.746582,103.983757 161.015076,103.983757 
z"/>
<path fill="#FEFEFE" opacity="1.000000" stroke="none" 
	d="
M83.011665,103.998085 
	C91.815735,103.998085 100.122444,103.998085 108.799133,103.998085 
	C108.799133,107.928574 108.799133,111.646362 108.799133,115.864014 
	C105.520668,115.864014 102.111725,115.864014 98.285233,115.864014 
	C98.285233,125.599327 98.285233,134.857864 98.285233,144.474030 
	C92.817200,144.474030 87.760818,144.474030 82.287132,144.474030 
	C82.287132,135.245132 82.287132,125.996246 82.287132,116.181641 
	C78.350250,116.181641 74.796234,116.181641 70.979332,116.181641 
	C70.979332,111.901764 70.979332,108.187119 70.979332,103.998085 
	C74.930618,103.998085 78.722466,103.998085 83.011665,103.998085 
z"/>
<path fill="#F7F8FB" opacity="1.000000" stroke="none" 
	d="
M194.921356,167.258667 
	C195.346848,172.705704 196.454865,177.888519 195.794052,182.835052 
	C194.583481,191.896744 187.131287,197.755829 178.055725,197.963303 
	C168.958786,198.171234 162.031235,192.609985 159.884430,183.375885 
	C156.434448,168.536377 164.987579,155.831635 178.374252,156.012405 
	C186.132721,156.117172 191.581268,159.859344 194.921356,167.258667 
M187.399780,169.451981 
	C185.449600,164.706818 182.230515,161.542328 176.790192,162.123932 
	C171.410721,162.699051 168.425110,166.485138 167.742264,171.397934 
	C167.164185,175.556992 167.265198,180.041107 168.203506,184.119598 
	C169.281967,188.807205 172.746582,191.836334 177.949829,191.904297 
	C182.505035,191.963821 186.792847,188.717941 187.686295,183.442261 
	C188.415131,179.138718 187.772400,174.602890 187.399780,169.451981 
z"/>
<path fill="#F7F8FB" opacity="1.000000" stroke="none" 
	d="
M112.734070,196.988617 
	C103.325897,199.225250 96.064087,196.795151 91.670059,190.163116 
	C86.532104,182.408249 86.962021,170.171814 92.627266,162.918777 
	C97.417488,156.786026 105.665428,154.225128 113.239159,157.097931 
	C116.064644,158.169662 118.853828,160.102676 120.894493,162.340607 
	C128.310608,170.473679 127.913445,191.916077 112.734070,196.988617 
M117.068863,182.269272 
	C116.488571,177.268982 116.748489,171.944199 114.992622,167.397949 
	C114.037605,164.925217 109.844772,162.910980 106.775368,162.246536 
	C102.903503,161.408386 99.389648,163.958511 98.169327,167.646500 
	C96.848885,171.637070 96.055679,176.035446 96.188347,180.219330 
	C96.392395,186.654526 100.767632,191.348206 105.851135,191.896500 
	C110.827408,192.433228 114.270470,189.687500 117.068863,182.269272 
z"/>
<path fill="#FAFBFD" opacity="1.000000" stroke="none" 
	d="
M202.956100,165.082993 
	C202.956100,162.111252 202.956100,159.626907 202.956100,156.333527 
	C208.865540,156.333527 214.509796,155.886810 220.045609,156.469772 
	C224.781815,156.968506 228.346222,159.741394 229.311630,164.922501 
	C230.362152,170.560440 228.207779,174.639008 224.370804,176.889023 
	C226.687363,183.568497 228.921753,190.011078 231.194977,196.565582 
	C223.428513,197.837997 223.425186,197.838821 221.787567,191.256058 
	C221.466476,189.965424 221.197510,188.661850 220.878387,187.370682 
	C219.377655,181.299011 217.376221,180.014984 210.304626,180.976913 
	C210.304626,186.131409 210.304626,191.372742 210.304626,196.891785 
	C207.710403,196.891785 205.632858,196.891785 202.956100,196.891785 
	C202.956100,186.455902 202.956100,176.013153 202.956100,165.082993 
M219.767090,173.322556 
	C222.744858,170.755966 223.168503,167.469345 221.108139,164.479263 
	C218.399887,160.548904 214.307816,161.610641 210.524994,162.317444 
	C210.524994,166.702072 210.524994,170.724564 210.524994,174.901871 
	C212.369659,174.901871 213.864624,175.044388 215.317841,174.859177 
	C216.604080,174.695251 217.843842,174.166595 219.767090,173.322556 
z"/>
<path fill="#F7F8FB" opacity="1.000000" stroke="none" 
	d="
M254.382629,183.033081 
	C251.180328,181.218079 248.260788,179.686844 245.328033,178.181305 
	C239.363800,175.119629 237.000290,171.030136 237.986435,165.440231 
	C238.832336,160.645309 243.178284,156.651093 249.045578,156.211182 
	C252.906082,155.921768 256.843750,156.661804 261.576447,157.000168 
	C260.821533,159.811325 260.334259,161.625793 259.883270,163.305191 
	C256.514191,162.883469 253.371124,161.922546 250.415756,162.328461 
	C248.580338,162.580521 246.183105,164.636932 245.630859,166.386307 
	C245.222687,167.679321 246.995377,170.322189 248.490784,171.403122 
	C250.866852,173.120667 253.891769,173.907486 256.517120,175.320480 
	C261.216248,177.849640 263.630768,181.810089 262.934448,187.221573 
	C262.242584,192.598572 258.951477,195.819580 253.817459,197.246155 
	C248.296646,198.780197 242.994644,198.173111 237.349365,195.418915 
	C237.743530,193.582535 238.140457,191.733276 238.571487,189.725113 
	C241.953506,190.483582 244.943176,191.566238 247.986603,191.747925 
	C253.730530,192.090851 256.045715,188.942505 254.382629,183.033081 
z"/>
<path fill="#FCFDFE" opacity="1.000000" stroke="none" 
	d="
M138.961746,184.987045 
	C138.961746,177.523819 138.961746,170.557678 138.961746,163.098206 
	C135.082626,163.098206 131.507309,163.098206 127.666519,163.098206 
	C127.666519,160.864639 127.666519,159.126648 127.666519,157.075027 
	C137.572556,157.075027 147.310486,157.075027 157.377319,157.075027 
	C157.377319,158.896851 157.377319,160.631683 157.377319,162.913681 
	C153.816162,162.913681 150.244339,162.913681 146.209015,162.913681 
	C146.209015,174.517624 146.209015,185.592148 146.209015,196.913940 
	C143.654907,196.913940 141.580887,196.913940 138.961746,196.913940 
	C138.961746,193.052948 138.961746,189.268539 138.961746,184.987045 
z"/>
<path fill="#25449C" opacity="1.000000" stroke="none" 
	d="
M187.568787,169.811005 
	C187.772400,174.602890 188.415131,179.138718 187.686295,183.442261 
	C186.792847,188.717941 182.505035,191.963821 177.949829,191.904297 
	C172.746582,191.836334 169.281967,188.807205 168.203506,184.119598 
	C167.265198,180.041107 167.164185,175.556992 167.742264,171.397934 
	C168.425110,166.485138 171.410721,162.699051 176.790192,162.123932 
	C182.230515,161.542328 185.449600,164.706818 187.568787,169.811005 
z"/>
<path fill="#26449C" opacity="1.000000" stroke="none" 
	d="
M117.001007,182.664093 
	C114.270470,189.687500 110.827408,192.433228 105.851135,191.896500 
	C100.767632,191.348206 96.392395,186.654526 96.188347,180.219330 
	C96.055679,176.035446 96.848885,171.637070 98.169327,167.646500 
	C99.389648,163.958511 102.903503,161.408386 106.775368,162.246536 
	C109.844772,162.910980 114.037605,164.925217 114.992622,167.397949 
	C116.748489,171.944199 116.488571,177.268982 117.001007,182.664093 
z"/>
<path fill="#2A489E" opacity="1.000000" stroke="none" 
	d="
M219.435608,173.560760 
	C217.843842,174.166595 216.604080,174.695251 215.317841,174.859177 
	C213.864624,175.044388 212.369659,174.901871 210.524994,174.901871 
	C210.524994,170.724564 210.524994,166.702072 210.524994,162.317444 
	C214.307816,161.610641 218.399887,160.548904 221.108139,164.479263 
	C223.168503,167.469345 222.744858,170.755966 219.435608,173.560760 
z"/>
</svg>