<?xml version="1.0" encoding="UTF-8" standalone="no" ?>
<!DOCTYPE svg PUBLIC "-//W3C//DTD SVG 1.1//EN" "http://www.w3.org/Graphics/SVG/1.1/DTD/svg11.dtd">
<svg xmlns="http://www.w3.org/2000/svg" xmlns:xlink="http://www.w3.org/1999/xlink" version="1.1" width="1080" height="1080" viewBox="0 0 1080 1080" xml:space="preserve">
<desc>Created with Fabric.js 5.2.4</desc>
<defs>
</defs>
<g transform="matrix(1 0 0 1 540 540)" id="2d664136-39b5-4ec4-8815-3cf7aa2a9e25"  >
<rect style="stroke: none; stroke-width: 1; stroke-dasharray: none; stroke-linecap: butt; stroke-dashoffset: 0; stroke-linejoin: miter; stroke-miterlimit: 4; fill: rgb(255,255,255); fill-rule: nonzero; opacity: 1;" vector-effect="non-scaling-stroke"  x="-540" y="-540" rx="0" ry="0" width="1080" height="1080" />
</g>
<g transform="matrix(1 0 0 1 540 540)" id="569e20b1-493a-4108-964a-38bb77d7ac55"  >
</g>
<g transform="matrix(0.6 0 0 0.6 540 540)"  >
<g style="" vector-effect="non-scaling-stroke"   >
		<g transform="matrix(0.13 0 0 -0.13 286.19 169.79)" id="path14"  >
<path style="stroke: none; stroke-width: 1; stroke-dasharray: none; stroke-linecap: butt; stroke-dashoffset: 0; stroke-linejoin: miter; stroke-miterlimit: 4; fill: rgb(35,31,32); fill-rule: nonzero; opacity: 1;" vector-effect="non-scaling-stroke"  transform=" translate(-8446.44, -824.97)" d="M 8599.97 631.961 C 8575.89 627.309 8533.449999999999 619.34 8495.679999999998 619.34 C 8366.239999999998 619.34 8292.919999999998 673.77 8292.919999999998 822.1020000000001 C 8292.919999999998 976.1600000000001 8390.319999999998 1030.5900000000001 8512.869999999999 1030.5900000000001 C 8550.64 1030.5900000000001 8575.89 1023.6900000000002 8595.31 1017.9700000000001 L 8595.31 945.1910000000001 C 8580.99 949.2190000000002 8540.97 956.1090000000002 8511.17 956.1090000000002 C 8440.09 956.1090000000002 8383.960000000001 945.1910000000001 8383.960000000001 824.9610000000001 C 8383.960000000001 706.3520000000001 8442.42 693.1990000000001 8506.6 693.1990000000001 C 8540.970000000001 693.1990000000001 8569 700.09 8599.970000000001 706.3520000000001 L 8599.970000000001 631.9610000000001" stroke-linecap="round" />
</g>
		<g transform="matrix(0.13 0 0 -0.13 342.83 169.79)" id="path16"  >
<path style="stroke: none; stroke-width: 1; stroke-dasharray: none; stroke-linecap: butt; stroke-dashoffset: 0; stroke-linejoin: miter; stroke-miterlimit: 4; fill: rgb(35,31,32); fill-rule: nonzero; opacity: 1;" vector-effect="non-scaling-stroke"  transform=" translate(-8871.21, -824.96)" d="M 8964.31 825.5 C 8964.31 932.031 8929.39 964.6990000000001 8872.64 964.6990000000001 C 8814.81 964.6990000000001 8779.9 926.301 8778.109999999999 825.5 C 8776.409999999998 724.699 8813.109999999999 685.762 8870.939999999999 685.762 C 8928.239999999998 685.762 8964.31 718.9799999999999 8964.31 825.5 z M 8687.07 824.961 C 8687.07 977.332 8760.92 1030.59 8872.1 1030.59 C 8983.2 1030.59 9055.35 973.8319999999999 9055.35 824.9609999999999 C 9055.35 676.6289999999999 8982.66 619.3399999999999 8870.94 619.3399999999999 C 8759.85 619.3399999999999 8687.07 674.8519999999999 8687.07 824.9609999999999" stroke-linecap="round" />
</g>
		<g transform="matrix(0.13 0 0 -0.13 402.38 169.79)" id="path18"  >
<path style="stroke: none; stroke-width: 1; stroke-dasharray: none; stroke-linecap: butt; stroke-dashoffset: 0; stroke-linejoin: miter; stroke-miterlimit: 4; fill: rgb(35,31,32); fill-rule: nonzero; opacity: 1;" vector-effect="non-scaling-stroke"  transform=" translate(-9317.86, -824.97)" d="M 9279.41 832.391 C 9321.84 832.391 9359.619999999999 845.02 9359.619999999999 895.949 C 9359.619999999999 946.352 9329.9 954.9409999999999 9280.579999999998 954.9409999999999 L 9252.549999999997 954.9409999999999 L 9252.549999999997 832.391 z M 9166.08 1024.86 L 9277.17 1024.86 C 9399.72 1024.86 9450.12 992.18 9450.12 899.4489999999998 C 9450.12 823.8009999999998 9411.19 803.7499999999999 9365.35 789.9609999999998 L 9365.35 783.1599999999997 L 9377.44 780.8319999999998 C 9419.230000000001 765.3399999999998 9443.86 685.7619999999997 9469.640000000001 635.8979999999998 L 9469.640000000001 625.07 L 9373.94 625.07 C 9355.050000000001 678.3320000000001 9335 759.0820000000001 9294.9 770.539 L 9252.55 770.539 L 9252.55 625.07 L 9166.08 625.07 L 9166.08 1024.8600000000001" stroke-linecap="round" />
</g>
		<g transform="matrix(0.13 0 0 -0.13 455.16 169.79)" id="path20"  >
<path style="stroke: none; stroke-width: 1; stroke-dasharray: none; stroke-linecap: butt; stroke-dashoffset: 0; stroke-linejoin: miter; stroke-miterlimit: 4; fill: rgb(35,31,32); fill-rule: nonzero; opacity: 1;" vector-effect="non-scaling-stroke"  transform=" translate(-9713.71, -824.97)" d="M 9658.16 823.801 L 9689.67 823.801 C 9740.07 823.801 9765.23 839.832 9765.23 889.6800000000001 C 9765.23 940.0820000000001 9740.07 954.4100000000001 9693.71 954.4100000000001 L 9658.16 954.4100000000001 z M 9571.69 1024.8600000000001 L 9680.54 1024.8600000000001 C 9798.53 1024.8600000000001 9855.730000000001 997.9100000000001 9855.730000000001 895.4100000000001 C 9855.730000000001 792.82 9787.61 763.1090000000002 9701.670000000002 763.1090000000002 L 9658.160000000002 763.1090000000002 L 9658.160000000002 625.07 L 9571.690000000002 625.07 L 9571.690000000002 1024.8600000000001" stroke-linecap="round" />
</g>
		<g transform="matrix(0.13 0 0 -0.13 508.59 169.79)" id="path22"  >
<path style="stroke: none; stroke-width: 1; stroke-dasharray: none; stroke-linecap: butt; stroke-dashoffset: 0; stroke-linejoin: miter; stroke-miterlimit: 4; fill: rgb(35,31,32); fill-rule: nonzero; opacity: 1;" vector-effect="non-scaling-stroke"  transform=" translate(-10114.45, -824.96)" d="M 10207.5 825.5 C 10207.5 932.031 10172.6 964.6990000000001 10115.9 964.6990000000001 C 10058 964.6990000000001 10023.1 926.301 10021.3 825.5 C 10019.599999999999 724.699 10056.3 685.762 10114.199999999999 685.762 C 10171.499999999998 685.762 10207.499999999998 718.9799999999999 10207.499999999998 825.5 z M 9930.3 824.961 C 9930.3 977.332 10004.199999999999 1030.59 10115.3 1030.59 C 10226.4 1030.59 10298.599999999999 973.8319999999999 10298.599999999999 824.9609999999999 C 10298.599999999999 676.6289999999999 10225.899999999998 619.3399999999999 10114.199999999999 619.3399999999999 C 10003.099999999999 619.3399999999999 9930.3 674.8519999999999 9930.3 824.9609999999999" stroke-linecap="round" />
</g>
		<g transform="matrix(0.13 0 0 -0.13 568.15 169.79)" id="path24"  >
<path style="stroke: none; stroke-width: 1; stroke-dasharray: none; stroke-linecap: butt; stroke-dashoffset: 0; stroke-linejoin: miter; stroke-miterlimit: 4; fill: rgb(35,31,32); fill-rule: nonzero; opacity: 1;" vector-effect="non-scaling-stroke"  transform=" translate(-10561.1, -824.97)" d="M 10522.6 832.391 C 10565.1 832.391 10602.800000000001 845.02 10602.800000000001 895.949 C 10602.800000000001 946.352 10573.1 954.9409999999999 10523.800000000001 954.9409999999999 L 10495.800000000001 954.9409999999999 L 10495.800000000001 832.391 z M 10409.300000000001 1024.86 L 10520.400000000001 1024.86 C 10643.000000000002 1024.86 10693.400000000001 992.18 10693.400000000001 899.4489999999998 C 10693.400000000001 823.8009999999998 10654.400000000001 803.7499999999999 10608.600000000002 789.9609999999998 L 10608.600000000002 783.1599999999997 L 10620.700000000003 780.8319999999998 C 10662.500000000002 765.3399999999998 10687.100000000002 685.7619999999997 10712.900000000003 635.8979999999998 L 10712.900000000003 625.07 L 10617.200000000003 625.07 C 10598.300000000003 678.3320000000001 10578.200000000003 759.0820000000001 10538.100000000002 770.539 L 10495.800000000003 770.539 L 10495.800000000003 625.07 L 10409.300000000003 625.07 L 10409.300000000003 1024.8600000000001" stroke-linecap="round" />
</g>
		<g transform="matrix(0.13 0 0 -0.13 622.61 169.6)" id="path26"  >
<path style="stroke: none; stroke-width: 1; stroke-dasharray: none; stroke-linecap: butt; stroke-dashoffset: 0; stroke-linejoin: miter; stroke-miterlimit: 4; fill: rgb(35,31,32); fill-rule: nonzero; opacity: 1;" vector-effect="non-scaling-stroke"  transform=" translate(-10969.55, -826.39)" d="M 11013.1 772.242 L 10973 910.281 L 10968.4 932.6519999999999 L 10962.699999999999 932.6519999999999 L 10958.099999999999 910.281 L 10916.3 772.242 z M 10781.1 634.199 L 10923.800000000001 1027.72 L 11008.500000000002 1027.72 L 11158 634.199 L 11158 625.0699999999999 L 11062.3 625.0699999999999 L 11029.099999999999 714.41 L 10903.699999999999 714.41 L 10874.4 625.0699999999999 L 10781.1 625.0699999999999 L 10781.1 634.199" stroke-linecap="round" />
</g>
		<g transform="matrix(0.13 0 0 -0.13 673.18 169.79)" id="path28"  >
<path style="stroke: none; stroke-width: 1; stroke-dasharray: none; stroke-linecap: butt; stroke-dashoffset: 0; stroke-linejoin: miter; stroke-miterlimit: 4; fill: rgb(35,31,32); fill-rule: nonzero; opacity: 1;" vector-effect="non-scaling-stroke"  transform=" translate(-11348.85, -824.97)" d="M 11305.3 956.109 L 11193 953.2420000000001 L 11193 1024.8600000000001 L 11504.7 1024.8600000000001 L 11504.7 953.2420000000002 L 11391.800000000001 956.1090000000002 L 11391.800000000001 625.07 L 11305.300000000001 625.07 L 11305.300000000001 956.109" stroke-linecap="round" />
</g>
		<g transform="matrix(0.13 0 0 -0.13 711.95 169.79)" id="path30"  >
<path style="stroke: none; stroke-width: 1; stroke-dasharray: none; stroke-linecap: butt; stroke-dashoffset: 0; stroke-linejoin: miter; stroke-miterlimit: 4; fill: rgb(35,31,32); fill-rule: nonzero; opacity: 1;" vector-effect="non-scaling-stroke"  transform=" translate(-11639.65, -824.97)" d="M 11596.4 625.07 L 11596.4 1024.8600000000001 L 11682.9 1024.8600000000001 L 11682.9 625.07 L 11596.4 625.07" stroke-linecap="round" />
</g>
		<g transform="matrix(0.13 0 0 -0.13 755.95 169.79)" id="path32"  >
<path style="stroke: none; stroke-width: 1; stroke-dasharray: none; stroke-linecap: butt; stroke-dashoffset: 0; stroke-linejoin: miter; stroke-miterlimit: 4; fill: rgb(35,31,32); fill-rule: nonzero; opacity: 1;" vector-effect="non-scaling-stroke"  transform=" translate(-11969.6, -824.96)" d="M 12062.6 825.5 C 12062.6 932.031 12027.7 964.6990000000001 11971 964.6990000000001 C 11913.2 964.6990000000001 11878.2 926.301 11876.5 825.5 C 11874.8 724.699 11911.4 685.762 11969.3 685.762 C 12026.5 685.762 12062.599999999999 718.9799999999999 12062.599999999999 825.5 z M 11785.5 824.961 C 11785.5 977.332 11859.3 1030.59 11970.4 1030.59 C 12081.5 1030.59 12153.699999999999 973.8319999999999 12153.699999999999 824.9609999999999 C 12153.699999999999 676.6289999999999 12080.999999999998 619.3399999999999 11969.3 619.3399999999999 C 11858.199999999999 619.3399999999999 11785.5 674.8519999999999 11785.5 824.9609999999999" stroke-linecap="round" />
</g>
		<g transform="matrix(0.13 0 0 -0.13 817.63 169.79)" id="path34"  >
<path style="stroke: none; stroke-width: 1; stroke-dasharray: none; stroke-linecap: butt; stroke-dashoffset: 0; stroke-linejoin: miter; stroke-miterlimit: 4; fill: rgb(35,31,32); fill-rule: nonzero; opacity: 1;" vector-effect="non-scaling-stroke"  transform=" translate(-12432.2, -824.97)" d="M 12264.4 1024.86 L 12339.9 1024.86 L 12487.699999999999 814.6719999999999 L 12508.3 780.2889999999999 L 12513.5 780.2889999999999 L 12513.5 1024.86 L 12600 1024.86 L 12600 625.07 L 12526.1 625.07 L 12374.300000000001 843.3090000000001 L 12357.1 872.5000000000001 L 12350.9 872.5000000000001 L 12350.9 625.07 L 12264.4 625.07 L 12264.4 1024.8600000000001" stroke-linecap="round" />
</g>
		<g transform="matrix(0.13 0 0 -0.13 -641.91 -61.35)" id="path36"  >
<path style="stroke: none; stroke-width: 1; stroke-dasharray: none; stroke-linecap: butt; stroke-dashoffset: 0; stroke-linejoin: miter; stroke-miterlimit: 4; fill: rgb(35,31,32); fill-rule: nonzero; opacity: 1;" vector-effect="non-scaling-stroke"  transform=" translate(-1485.64, -2558.51)" d="M 2971.28 3742.3 L 2323.44 1374.72 L 1946.98 1374.72 L 1489.05 3094.45 L 1024.36 1374.72 L 647.844 1374.72 L 0 3742.3 L 373.109 3742.3 L 834.398 2022.56 L 1299.09 3742.3 L 1668.79 3742.3 L 2136.89 2022.5600000000002 L 2598.22 3742.3 L 2971.2799999999997 3742.3" stroke-linecap="round" />
</g>
		<g transform="matrix(0.13 0 0 -0.13 -329.67 -62.93)" id="path38"  >
<path style="stroke: none; stroke-width: 1; stroke-dasharray: none; stroke-linecap: butt; stroke-dashoffset: 0; stroke-linejoin: miter; stroke-miterlimit: 4; fill: rgb(35,31,32); fill-rule: nonzero; opacity: 1;" vector-effect="non-scaling-stroke"  transform=" translate(-3827.49, -2570.37)" d="M 3144.01 3735.49 L 3517.1200000000003 3766.02 L 3517.1200000000003 3186.0299999999997 L 3510.32 2968.95 L 3523.9300000000003 2968.95 C 3696.88 3033.3999999999996 3835.9900000000002 3063.93 4005.5800000000004 3063.93 C 4307.4800000000005 3063.93 4510.96 2928.21 4510.96 2409.2999999999997 L 4510.96 1374.72 L 4137.85 1374.72 L 4137.85 2378.7799999999997 C 4137.85 2690.8099999999995 3985.2100000000005 2731.5 3812.2700000000004 2731.5 C 3703.6800000000003 2731.5 3612.1000000000004 2707.74 3517.1200000000003 2680.61 L 3517.1200000000003 1374.72 L 3144.01 1374.72 L 3144.01 3735.49" stroke-linecap="round" />
</g>
		<g transform="matrix(0.13 0 0 -0.13 -170.04 -59.32)" id="path40"  >
<path style="stroke: none; stroke-width: 1; stroke-dasharray: none; stroke-linecap: butt; stroke-dashoffset: 0; stroke-linejoin: miter; stroke-miterlimit: 4; fill: rgb(35,31,32); fill-rule: nonzero; opacity: 1;" vector-effect="non-scaling-stroke"  transform=" translate(-5024.69, -2543.24)" d="M 4836.44 3040.16 L 5209.5599999999995 3040.16 L 5209.5599999999995 1374.72 L 4836.44 1374.72 Z M 5023 3711.77 C 5216.36 3711.77 5246.88 3599.83 5246.88 3474.32 C 5246.88 3348.82 5206.16 3233.4700000000003 5023 3233.4700000000003 C 4839.85 3233.4700000000003 4802.51 3348.82 4802.51 3474.32 C 4802.51 3599.8300000000004 4836.4400000000005 3711.77 5023 3711.77" stroke-linecap="round" />
</g>
		<g transform="matrix(0.13 0 0 -0.13 -45.68 -16.13)" id="path42"  >
<path style="stroke: none; stroke-width: 1; stroke-dasharray: none; stroke-linecap: butt; stroke-dashoffset: 0; stroke-linejoin: miter; stroke-miterlimit: 4; fill: rgb(35,31,32); fill-rule: nonzero; opacity: 1;" vector-effect="non-scaling-stroke"  transform=" translate(-5957.4, -2219.32)" d="M 5524.93 3040.16 L 5779.34 3040.16 L 5830.2300000000005 2904.49 L 5854 2904.49 C 5952.33 2989.27 6108.32 3063.93 6311.88 3063.93 C 6335.6 3063.93 6362.7300000000005 3063.93 6389.86 3060.52 L 6389.86 2694.22 C 6322.08 2704.33 6250.83 2714.5299999999997 6179.58 2714.5299999999997 C 6077.79 2714.5299999999997 5996.42 2690.81 5898.04 2646.7 L 5898.04 1374.72 L 5524.93 1374.72 L 5524.93 3040.16" stroke-linecap="round" />
</g>
		<g transform="matrix(0.13 0 0 -0.13 58.1 -62.93)" id="path44"  >
<path style="stroke: none; stroke-width: 1; stroke-dasharray: none; stroke-linecap: butt; stroke-dashoffset: 0; stroke-linejoin: miter; stroke-miterlimit: 4; fill: rgb(35,31,32); fill-rule: nonzero; opacity: 1;" vector-effect="non-scaling-stroke"  transform=" translate(-6735.75, -2570.37)" d="M 6549.19 1374.72 L 6549.19 3735.49 L 6922.3099999999995 3766.02 L 6922.3099999999995 1374.7199999999998 L 6549.19 1374.7199999999998" stroke-linecap="round" />
</g>
		<g transform="matrix(0.13 0 0 -0.13 435.48 -13.86)" id="path46"  >
<path style="stroke: none; stroke-width: 1; stroke-dasharray: none; stroke-linecap: butt; stroke-dashoffset: 0; stroke-linejoin: miter; stroke-miterlimit: 4; fill: rgb(35,31,32); fill-rule: nonzero; opacity: 1;" vector-effect="non-scaling-stroke"  transform=" translate(-9566.11, -2202.36)" d="M 9927.34 2199.03 C 9927.34 2514.4 9876.41 2772.19 9577.95 2772.19 C 9276.1 2772.19 9201.44 2524.6 9201.44 2199.03 C 9201.44 1897.15 9262.5 1635.9300000000003 9561.03 1635.9300000000003 C 9859.49 1635.9300000000003 9927.34 1883.5400000000004 9927.34 2199.03 z M 9574.56 3063.9300000000003 C 10103.699999999999 3063.9300000000003 10307.3 2751.8700000000003 10307.3 2199.03 C 10307.3 1680.0700000000002 10117.3 1340.7900000000002 9567.75 1340.7900000000002 C 9018.29 1340.7900000000002 8824.93 1680.0700000000002 8824.93 2199.03 C 8824.93 2751.8700000000003 9045.41 3063.9300000000003 9574.56 3063.9300000000003" stroke-linecap="round" />
</g>
		<g transform="matrix(0.13 0 0 -0.13 658.55 -13.86)" id="path48"  >
<path style="stroke: none; stroke-width: 1; stroke-dasharray: none; stroke-linecap: butt; stroke-dashoffset: 0; stroke-linejoin: miter; stroke-miterlimit: 4; fill: rgb(35,31,32); fill-rule: nonzero; opacity: 1;" vector-effect="non-scaling-stroke"  transform=" translate(-11239.1, -2202.36)" d="M 11600.3 2199.03 C 11600.3 2514.4 11549.4 2772.19 11251 2772.19 C 10949.1 2772.19 10874.4 2524.6 10874.4 2199.03 C 10874.4 1897.15 10935.5 1635.9300000000003 11234 1635.9300000000003 C 11532.5 1635.9300000000003 11600.3 1883.5400000000004 11600.3 2199.03 z M 11247.599999999999 3063.9300000000003 C 11776.699999999999 3063.9300000000003 11980.3 2751.8700000000003 11980.3 2199.03 C 11980.3 1680.0700000000002 11790.3 1340.7900000000002 11240.8 1340.7900000000002 C 10691.3 1340.7900000000002 10497.9 1680.0700000000002 10497.9 2199.03 C 10497.9 2751.8700000000003 10718.4 3063.9300000000003 11247.6 3063.9300000000003" stroke-linecap="round" />
</g>
		<g transform="matrix(0.13 0 0 -0.13 814.45 -62.93)" id="path50"  >
<path style="stroke: none; stroke-width: 1; stroke-dasharray: none; stroke-linecap: butt; stroke-dashoffset: 0; stroke-linejoin: miter; stroke-miterlimit: 4; fill: rgb(35,31,32); fill-rule: nonzero; opacity: 1;" vector-effect="non-scaling-stroke"  transform=" translate(-12408.35, -2570.37)" d="M 12221.8 1374.72 L 12221.8 3735.49 L 12594.9 3766.02 L 12594.9 1374.7199999999998 L 12221.8 1374.7199999999998" stroke-linecap="round" />
</g>
		<g transform="matrix(0.13 0 0 -0.13 217.29 36.78)" id="path52"  >
<path style="stroke: none; stroke-width: 1; stroke-dasharray: none; stroke-linecap: butt; stroke-dashoffset: 0; stroke-linejoin: miter; stroke-miterlimit: 4; fill: rgb(35,31,32); fill-rule: nonzero; opacity: 1;" vector-effect="non-scaling-stroke"  transform=" translate(-7929.66, -1822.49)" d="M 7600.68 1683.38 C 7705.780000000001 1680.0700000000002 7763.51 1676.66 7872.01 1676.66 C 8102.6 1676.66 8255.33 1798.77 8255.33 2283.86 C 8255.33 2616.2400000000002 8119.61 2704.33 7875.41 2704.33 C 7780.42 2704.33 7692.25 2687.5 7600.68 2656.89 z M 7227.56 3040.21 L 7509.1 3040.21 L 7539.620000000001 2918.1 C 7651.620000000001 2979.15 7858.390000000001 3063.93 8045.040000000001 3063.93 C 8384.140000000001 3063.93 8631.75 2816.3199999999997 8631.75 2222.81 C 8631.75 1639.33 8370.53 1351 7936.46 1351 C 7776.67 1351 7600.68 1384.92 7600.68 1384.92 L 7600.68 621.781 L 7227.56 581.0509999999999 L 7227.56 3040.21" stroke-linecap="round" />
</g>
		<g transform="matrix(0.13 0 0 -0.13 66.09 0)" id="path54"  >
<path style="stroke: none; stroke-width: 1; stroke-dasharray: none; stroke-linecap: butt; stroke-dashoffset: 0; stroke-linejoin: miter; stroke-miterlimit: 4; fill: rgb(237,172,9); fill-rule: nonzero; opacity: 1;" vector-effect="non-scaling-stroke"  transform=" translate(-6795.66, -2098.37)" d="M 9074.68 4063.49 C 8795.66 4386.78 7910.320000000001 4102.61 6922.31 3418.7999999999997 L 6922.31 3246.4799999999996 C 7792.43 3864.9799999999996 8559.460000000001 4150.36 8779.14 3895.8199999999997 C 9053.42 3578.01 8371.12 2538.48 7254.96 1575.24 C 6138.71 611.941 5011.07 89.6406 4736.83 407.469 C 4594.39 572.551 4710.54 932.281 5011.07 1374.72 L 4836.38 1374.72 C 4464.25 819.77 4324.76 353.52 4515.82 132.121 C 4864.13 -271.52 6167 280.699 7425.58 1366.75 C 8684.03 2452.8 9422.95 3659.88 9074.68 4063.49" stroke-linecap="round" />
</g>
</g>
</g>
</svg>