<svg version="1.1" id="Layer_1" xmlns="http://www.w3.org/2000/svg" xmlns:xlink="http://www.w3.org/1999/xlink" x="0px" y="0px"
	 width="100%" viewBox="0 0 1280 426" enable-background="new 0 0 1280 426" xml:space="preserve">
<path fill="#FEFEFE" opacity="1.000000" stroke="none" 
	d="
M1.000000,47.000000 
	C1.000000,31.673838 1.000000,16.347677 1.000000,1.000000 
	C290.357422,1.000000 579.714844,1.000000 869.363220,1.342681 
	C858.908691,4.504184 847.989380,6.790810 837.447693,10.233500 
	C790.645203,25.518120 748.581848,50.006428 707.904297,77.576691 
	C707.323669,77.940681 707.004639,78.333878 706.502319,78.794098 
	C706.319092,78.861107 705.998413,79.083504 705.714111,79.013214 
	C705.040833,78.925682 704.651794,78.908440 704.229614,78.430588 
	C704.196411,67.042427 704.196411,56.114876 704.196411,44.838631 
	C691.185913,45.946667 678.845032,46.997673 666.576904,48.042484 
	C666.576904,128.072662 666.576904,207.487213 666.576904,286.923920 
	C679.238525,286.923920 691.611938,286.923920 704.171753,286.923920 
	C704.171753,281.054321 704.168579,275.568665 704.172241,270.083008 
	C704.210571,212.433456 704.250000,154.783890 704.592590,97.110580 
	C705.686218,96.498291 706.476379,95.909760 707.582397,95.186867 
	C736.209045,75.313560 765.430420,57.086189 796.792786,42.546551 
	C818.287109,32.581783 840.203430,23.761456 864.312073,22.566422 
	C873.085449,22.131538 881.757629,22.987909 889.014832,28.471233 
	C898.880676,35.925560 900.110901,46.561142 898.396484,57.766968 
	C894.942017,80.346901 884.046936,99.826973 872.173889,118.807602 
	C868.593140,124.531860 864.323975,129.825516 860.117493,135.033936 
	C844.919739,117.344467 825.578979,113.179512 804.250610,117.757179 
	C791.578857,120.476868 779.368835,125.347954 766.676636,129.338089 
	C765.853210,126.339203 764.776245,122.416977 763.783936,118.802856 
	C753.977112,118.802856 744.711975,118.802856 735.181396,118.802856 
	C735.181396,169.027832 735.181396,218.925385 734.999512,269.124207 
	C734.621460,269.692719 734.468567,270.010712 734.223083,270.220093 
	C700.986328,298.570770 666.092896,324.688049 628.781799,347.447601 
	C600.175781,364.897095 570.755249,380.774567 538.279236,390.026367 
	C525.261780,393.734711 512.085571,396.467743 498.407501,394.038269 
	C486.118469,391.855530 478.553345,384.156555 476.689606,371.953308 
	C474.938751,360.489136 477.469208,349.482056 482.137604,339.384277 
	C489.309875,323.870422 497.801788,308.966705 505.827087,293.811829 
	C505.920380,293.819519 506.097351,293.603668 506.097351,293.603668 
	C506.097351,293.603668 505.984436,293.408600 506.330292,292.996490 
	C507.039093,291.965790 507.402039,291.347168 507.958313,290.623108 
	C508.858673,289.445221 509.565735,288.372742 510.723907,287.307007 
	C517.425293,287.313751 523.675598,287.313751 529.957397,287.313751 
	C529.957397,230.740479 529.957397,174.849426 529.957397,118.880058 
	C517.377991,118.880058 505.007843,118.880058 492.300751,118.880058 
	C492.300751,121.081718 492.300781,122.893356 492.300781,124.704994 
	C492.300873,172.323441 492.293121,219.941895 492.310028,267.560333 
	C492.312347,274.047363 492.437500,280.534332 492.341370,287.345428 
	C480.441711,305.238922 469.732269,323.388611 461.635468,342.953461 
	C455.509186,357.756714 450.697632,372.901672 451.103912,389.224365 
	C451.547485,407.045502 461.455292,419.903290 478.502655,424.659668 
	C481.332458,425.449188 484.167419,426.220337 487.000000,427.000000 
	C325.080414,427.000000 163.160843,427.000000 1.000000,427.000000 
	C1.000000,301.976013 1.000000,176.951904 1.364647,51.558712 
	C2.216755,52.594391 2.786795,53.976437 3.179805,55.407120 
	C20.780254,119.478638 38.364048,183.554718 55.952770,247.629456 
	C59.562061,260.777893 63.182919,273.923157 66.863503,287.306458 
	C77.988892,287.306458 88.812218,287.091583 99.619545,287.413422 
	C103.873505,287.540100 105.543671,286.257996 106.660522,282.072113 
	C119.668556,233.318665 132.903610,184.625748 146.089447,135.919754 
	C148.036026,128.729401 150.038712,121.554245 152.346054,113.170807 
	C168.036270,172.008270 183.379120,229.543076 198.783096,287.307159 
	C209.616638,287.307159 220.117203,286.942841 230.573975,287.461456 
	C235.770844,287.719208 237.617355,286.035431 238.940872,281.154663 
	C256.025696,218.150772 273.345245,155.210556 290.594513,92.251259 
	C294.677612,77.348145 298.720245,62.433945 302.845978,47.288116 
	C290.072083,47.288116 277.757935,47.288116 265.016815,47.288116 
	C249.558121,104.760567 234.090561,162.266022 218.252136,221.150238 
	C217.462372,218.779190 217.116333,217.883606 216.864197,216.962296 
	C211.896561,198.809341 206.931976,180.655533 201.982529,162.497589 
	C191.909912,125.544624 181.859650,88.585548 171.744354,51.644279 
	C171.188721,49.615025 171.388809,47.015228 167.750443,47.082352 
	C156.270966,47.294136 144.785095,47.160458 133.051727,47.160458 
	C117.411575,104.909775 101.822952,162.468826 86.234329,220.027878 
	C85.929550,219.956741 85.624779,219.885620 85.320000,219.814484 
	C69.850143,162.287308 54.380291,104.760124 38.847794,47.000000 
	C25.972618,47.000000 13.486309,47.000000 1.000000,47.000000 
M389.434265,149.942673 
	C409.191040,150.269974 417.950806,157.263580 420.678528,174.990707 
	C421.031799,177.286484 421.135712,179.639893 421.140686,181.967072 
	C421.211792,215.128708 421.246063,248.290421 421.288757,281.452118 
	C421.291077,283.242371 421.289062,285.032654 421.289062,286.978333 
	C434.193207,286.978333 446.572754,286.978333 459.230621,286.978333 
	C459.230621,285.839203 459.230927,285.030151 459.230530,284.221130 
	C459.213348,249.558960 459.330444,214.895798 459.079376,180.235321 
	C459.020508,172.114014 458.299835,163.897476 456.873505,155.905014 
	C452.736877,132.725784 439.707886,119.544594 419.458160,116.922218 
	C406.048523,115.185646 392.845703,116.407356 379.803070,119.478699 
	C372.573151,121.181221 365.498627,123.543480 357.939026,125.728310 
	C357.939026,98.635963 357.939026,71.930244 357.939026,44.869442 
	C345.233459,45.949348 332.901855,46.997467 320.632263,48.040318 
	C320.632263,128.097076 320.632263,207.509293 320.632263,287.078918 
	C333.234924,287.078918 345.495972,287.078918 358.201111,287.078918 
	C358.201111,242.961365 358.201111,199.068985 358.201111,153.948837 
	C368.473175,152.589310 378.475220,151.265518 389.434265,149.942673 
M591.313293,127.115471 
	C590.625061,125.240501 590.107178,123.276405 589.188721,121.521942 
	C588.578125,120.355560 587.420227,118.648102 586.465027,118.620026 
	C578.520264,118.386566 570.565613,118.487610 562.425415,118.487610 
	C562.425415,174.968430 562.425415,230.863861 562.425415,287.011353 
	C575.059692,287.011353 587.424988,287.011353 600.140259,287.011353 
	C600.140259,243.949921 600.140259,201.182617 600.140259,158.757568 
	C616.162476,150.093369 632.845703,150.965820 649.868103,153.480316 
	C649.868103,140.926254 649.868103,128.843994 649.868103,116.323380 
	C631.124451,115.169495 613.968689,118.730080 598.795105,129.921021 
	C593.962463,133.485229 593.805420,133.452713 591.313293,127.115471 
M503.734436,97.971382 
	C524.107727,101.788933 534.384399,93.167450 533.991150,72.587753 
	C533.987976,72.421524 533.984802,72.255287 533.980591,72.089081 
	C533.613098,57.694645 526.753723,50.767300 512.410522,50.305145 
	C498.685974,49.862930 490.644897,55.867096 489.329956,68.287125 
	C488.795685,73.333229 489.148315,78.601868 489.957031,83.631035 
	C491.135071,90.957115 495.621613,95.814240 503.734436,97.971382 
z"/>
<path fill="#FEFEFE" opacity="1.000000" stroke="none" 
	d="
M1281.000000,363.000000 
	C1281.000000,384.322205 1281.000000,405.644379 1281.000000,427.000000 
	C1023.312439,427.000000 765.624878,427.000000 507.749268,426.723969 
	C530.026062,423.540955 551.346191,416.624451 572.095032,407.816193 
	C621.328857,386.915497 665.809143,358.051941 708.446411,326.130768 
	C717.354065,319.461945 726.173828,312.675629 735.071411,306.415283 
	C735.108704,327.147919 735.108704,347.408661 735.108704,367.958801 
	C748.120300,366.536041 760.459839,365.186798 773.208801,363.792786 
	C773.208801,337.886963 773.208801,312.347321 773.208801,287.025909 
	C783.908325,287.967438 794.154785,289.195648 804.436951,289.713684 
	C837.579529,291.383484 861.941467,274.921082 871.926208,243.393997 
	C880.104370,217.571259 879.673706,191.268982 874.035950,164.632233 
	C875.236084,162.643158 876.336609,160.987610 877.413940,159.317169 
	C888.301758,142.435135 899.910706,125.965714 909.877808,108.556396 
	C921.048279,89.045166 929.612305,68.386330 931.573303,45.453648 
	C933.504333,22.871317 920.986145,5.814223 899.128723,2.424800 
	C898.646545,1.804421 898.323303,1.402197 898.000000,0.999987 
	C1025.666626,1.000000 1153.333374,1.000000 1281.000000,1.000000 
	C1281.000000,15.425406 1281.000000,29.744045 1280.724365,44.526207 
	C1280.269287,45.029160 1280.089722,45.068588 1279.482422,45.055355 
	C1266.995483,46.010319 1254.936157,47.017948 1242.949463,48.019516 
	C1242.949463,127.998543 1242.949463,207.421783 1242.949463,287.019653 
	C1255.470337,287.019653 1267.745239,287.019653 1280.266235,287.074677 
	C1280.674927,287.086456 1280.837524,287.043243 1281.000000,287.000000 
	C1281.000000,298.687561 1281.000000,310.375122 1280.545044,322.495483 
	C1277.508667,322.928284 1274.927368,322.928284 1271.901611,322.928284 
	C1271.901611,331.340698 1271.901611,339.011383 1271.901611,347.465454 
	C1266.977905,340.478882 1262.265625,334.451813 1258.314941,327.961060 
	C1255.549927,323.418488 1252.292236,321.801849 1247.215088,323.376923 
	C1247.215088,336.570923 1247.215088,349.795990 1247.215088,362.940796 
	C1250.248657,362.940796 1252.964722,362.940796 1256.044434,362.940796 
	C1256.044434,354.831543 1256.044434,347.113190 1256.044434,338.407471 
	C1260.978638,345.476013 1265.675781,351.483734 1269.543579,357.984985 
	C1272.383789,362.759094 1275.841675,364.379333 1281.000000,363.000000 
M1048.026367,200.517197 
	C1046.687256,189.136398 1046.354980,177.523941 1043.800781,166.422714 
	C1038.376099,142.845795 1024.644897,126.107338 1000.502563,119.487785 
	C986.999084,115.785301 973.239441,115.342079 959.380188,117.025467 
	C931.911621,120.361855 912.373840,134.093216 903.763123,160.940613 
	C895.315613,187.279037 895.476013,214.148605 901.991394,240.832138 
	C907.800476,264.623413 922.184265,281.071503 946.348999,287.580414 
	C962.516235,291.935089 978.956970,292.056122 995.353699,288.602386 
	C1019.989685,283.413208 1035.481812,268.267944 1042.824829,244.472839 
	C1047.142700,230.480469 1048.232788,216.065521 1048.026367,200.517197 
M1215.957275,231.335220 
	C1219.055054,209.712646 1219.221680,188.135117 1213.994873,166.811874 
	C1208.184570,143.107162 1194.726440,126.139618 1170.354248,119.473221 
	C1157.008545,115.822823 1143.445923,115.655144 1129.713257,116.920853 
	C1102.156494,119.460724 1081.284546,135.541138 1073.289795,161.968460 
	C1065.497070,187.727509 1065.419922,213.958160 1071.695190,239.993469 
	C1078.530273,268.351135 1096.680908,285.125336 1125.708252,289.589020 
	C1139.669067,291.735809 1153.595825,291.394073 1167.396240,288.118866 
	C1183.519897,284.292419 1196.997192,276.094116 1204.946533,261.462433 
	C1209.865723,252.407990 1212.276001,241.990479 1215.957275,231.335220 
M1235.234009,348.626465 
	C1235.098877,344.171082 1235.524048,339.609131 1234.701172,335.284607 
	C1233.370850,328.294006 1228.886475,323.997833 1221.648804,322.722137 
	C1208.224976,320.356110 1200.021118,326.317780 1198.586914,339.819153 
	C1198.292114,342.594147 1198.378784,345.473694 1198.748169,348.243835 
	C1200.109497,358.451447 1205.686157,363.644928 1215.365479,364.003906 
	C1226.833008,364.429230 1232.760254,360.060181 1235.234009,348.626465 
M883.815125,347.684998 
	C884.521301,353.734314 886.561157,359.018951 892.367249,361.983063 
	C906.136414,369.012451 920.179565,360.983093 920.815918,345.594543 
	C920.965210,341.984924 920.698303,338.234894 919.855713,334.734070 
	C918.289551,328.226135 914.127197,324.105530 907.308289,322.814240 
	C893.188110,320.140411 884.810425,326.490295 883.742249,340.887665 
	C883.595642,342.863403 883.752258,344.861633 883.815125,347.684998 
M1014.758118,327.273346 
	C1008.286682,336.266510 1008.246094,346.034485 1012.612976,355.572845 
	C1014.060303,358.734314 1017.983887,361.685120 1021.415588,362.856323 
	C1036.762329,368.094116 1047.569580,359.174683 1047.145996,342.156921 
	C1046.959717,334.675751 1045.479370,327.534943 1037.847046,324.253601 
	C1030.091797,320.919403 1022.279175,321.183441 1014.758118,327.273346 
M1085.066528,327.566437 
	C1077.281372,320.520294 1067.806641,323.799591 1058.721436,322.767303 
	C1058.721436,336.498993 1058.721436,349.704437 1058.721436,363.130676 
	C1061.589355,363.130676 1064.181274,363.130676 1067.192383,363.130676 
	C1067.192383,358.331451 1067.192383,353.732452 1067.192383,349.188202 
	C1073.344727,348.508881 1074.216431,349.194977 1077.162354,356.659393 
	C1080.177856,364.299438 1080.792603,364.609375 1089.831421,362.421539 
	C1086.584106,356.939545 1083.464722,351.673676 1080.355469,346.424835 
	C1087.702759,342.304718 1089.395264,336.866089 1085.066528,327.566437 
M932.074646,330.566589 
	C932.074646,341.346375 932.074646,352.126160 932.074646,363.080933 
	C935.259888,363.080933 938.024170,363.080933 941.110962,363.080933 
	C941.110962,358.210083 941.110962,353.586761 941.110962,348.725647 
	C951.705933,348.369202 949.732727,358.308716 953.599731,362.991943 
	C956.735474,362.991943 959.805237,362.991943 963.913269,362.991943 
	C960.349182,357.001526 957.212646,351.729797 953.975769,346.289337 
	C953.716064,346.410431 954.278198,346.179382 954.811768,345.894684 
	C959.985168,343.134338 961.794312,339.344025 960.910217,333.041718 
	C960.170532,327.769165 957.131470,324.455627 951.888428,323.890686 
	C945.382874,323.189758 938.819580,323.024780 932.064148,322.615143 
	C932.064148,325.619598 932.064148,327.602417 932.074646,330.566589 
M1127.479004,343.911987 
	C1125.107788,337.690277 1122.908081,331.392914 1120.226318,325.308105 
	C1119.662476,324.028625 1117.325684,322.840729 1115.808350,322.843842 
	C1113.856812,322.847839 1110.655273,323.603760 1110.151855,324.884583 
	C1105.245117,337.370270 1100.789673,350.033325 1096.056885,363.055237 
	C1099.637695,363.055237 1102.692383,363.055237 1105.649048,363.055237 
	C1105.902100,362.543915 1106.077515,362.260742 1106.188843,361.954407 
	C1109.030640,354.131683 1109.029785,354.264069 1117.641479,354.249664 
	C1120.433105,354.244995 1121.795776,355.128357 1122.763794,357.726990 
	C1125.133911,364.089691 1127.114014,364.794952 1134.479614,362.375885 
	C1132.241211,356.457092 1130.005249,350.544464 1127.479004,343.911987 
M973.275269,337.506897 
	C973.275269,345.936035 973.275269,354.365173 973.275269,363.062622 
	C976.409241,363.062622 979.138123,363.062622 982.344116,363.062622 
	C982.344116,358.410126 982.344116,354.018158 982.344116,349.583466 
	C985.945801,349.351715 989.126221,349.427368 992.199768,348.890533 
	C998.435974,347.801331 1001.846008,343.558105 1002.127869,337.087830 
	C1002.439392,329.933289 1000.166443,325.186951 994.606873,324.236084 
	C987.719055,323.058136 980.633911,323.034027 973.275330,322.484680 
	C973.275330,327.924377 973.275330,332.217926 973.275269,337.506897 
M849.031311,359.527252 
	C856.984314,365.538055 865.665527,364.499207 874.525391,362.738342 
	C874.525391,360.051025 874.525391,357.956146 874.525391,355.863190 
	C855.233826,356.284058 852.267822,354.415283 853.044556,341.662842 
	C853.234009,338.553375 854.156982,334.627106 856.239563,332.666504 
	C861.196411,328.000000 867.731140,330.304810 874.137390,330.620941 
	C873.261475,327.848785 876.447144,324.122955 871.324768,322.899139 
	C861.745789,320.610565 851.082642,324.028961 846.737549,330.856171 
	C841.820190,338.582764 842.666382,351.678253 849.031311,359.527252 
M1161.817017,330.015289 
	C1164.413208,330.015289 1167.009399,330.015289 1169.546509,330.015289 
	C1169.546509,327.350464 1169.546509,325.283203 1169.546509,323.149078 
	C1158.972900,323.149078 1148.712402,323.149078 1138.251221,323.149078 
	C1138.251221,325.467926 1138.251221,327.542572 1138.251221,330.047028 
	C1142.016113,330.047028 1145.594482,330.047028 1149.701904,330.047028 
	C1149.701904,341.360016 1149.701904,352.251617 1149.701904,363.029388 
	C1152.834229,363.029388 1155.422607,363.029388 1158.265869,363.029388 
	C1158.265869,352.911743 1158.297485,343.102570 1158.239258,333.293884 
	C1158.227661,331.326508 1158.056519,329.507812 1161.817017,330.015289 
M1187.938965,350.489868 
	C1187.938965,341.403839 1187.938965,332.317810 1187.938965,323.235443 
	C1184.686157,323.235443 1181.971191,323.235443 1179.349121,323.235443 
	C1179.349121,336.760681 1179.349121,349.961060 1179.349121,363.077087 
	C1182.284546,363.077087 1184.890259,363.077087 1187.938965,363.077087 
	C1187.938965,359.058502 1187.938965,355.271362 1187.938965,350.489868 
z"/>
<path fill="#252122" opacity="1.000000" stroke="none" 
	d="
M1.000000,47.399994 
	C13.486309,47.000000 25.972618,47.000000 38.847794,47.000000 
	C54.380291,104.760124 69.850143,162.287308 85.320000,219.814484 
	C85.624779,219.885620 85.929550,219.956741 86.234329,220.027878 
	C101.822952,162.468826 117.411575,104.909775 133.051727,47.160458 
	C144.785095,47.160458 156.270966,47.294136 167.750443,47.082352 
	C171.388809,47.015228 171.188721,49.615025 171.744354,51.644279 
	C181.859650,88.585548 191.909912,125.544624 201.982529,162.497589 
	C206.931976,180.655533 211.896561,198.809341 216.864197,216.962296 
	C217.116333,217.883606 217.462372,218.779190 218.252136,221.150238 
	C234.090561,162.266022 249.558121,104.760567 265.016815,47.288116 
	C277.757935,47.288116 290.072083,47.288116 302.845978,47.288116 
	C298.720245,62.433945 294.677612,77.348145 290.594513,92.251259 
	C273.345245,155.210556 256.025696,218.150772 238.940872,281.154663 
	C237.617355,286.035431 235.770844,287.719208 230.573975,287.461456 
	C220.117203,286.942841 209.616638,287.307159 198.783096,287.307159 
	C183.379120,229.543076 168.036270,172.008270 152.346054,113.170807 
	C150.038712,121.554245 148.036026,128.729401 146.089447,135.919754 
	C132.903610,184.625748 119.668556,233.318665 106.660522,282.072113 
	C105.543671,286.257996 103.873505,287.540100 99.619545,287.413422 
	C88.812218,287.091583 77.988892,287.306458 66.863503,287.306458 
	C63.182919,273.923157 59.562061,260.777893 55.952770,247.629456 
	C38.364048,183.554718 20.780254,119.478638 3.179805,55.407120 
	C2.786795,53.976437 2.216755,52.594391 1.364647,51.094826 
	C1.000000,49.933331 1.000000,48.866661 1.000000,47.399994 
z"/>
<path fill="#ECAD10" opacity="1.000000" stroke="none" 
	d="
M735.034058,305.943420 
	C726.173828,312.675629 717.354065,319.461945 708.446411,326.130768 
	C665.809143,358.051941 621.328857,386.915497 572.095032,407.816193 
	C551.346191,416.624451 530.026062,423.540955 507.280640,426.723969 
	C500.645599,427.000000 494.291199,427.000000 487.468384,427.000000 
	C484.167419,426.220337 481.332458,425.449188 478.502655,424.659668 
	C461.455292,419.903290 451.547485,407.045502 451.103912,389.224365 
	C450.697632,372.901672 455.509186,357.756714 461.635468,342.953461 
	C469.732269,323.388611 480.441711,305.238922 492.575928,287.303528 
	C493.284729,287.023804 493.600464,287.070282 494.262146,287.280151 
	C497.725769,287.347168 500.849274,287.210938 504.313293,287.064148 
	C505.107910,287.056763 505.562073,287.059906 506.244812,287.260925 
	C506.903931,288.548706 507.334442,289.638641 507.764954,290.728546 
	C507.402039,291.347168 507.039093,291.965790 506.232422,292.961670 
	C505.788727,293.338959 505.589966,293.573425 505.589966,293.573425 
	C505.589966,293.573425 505.733734,293.804077 505.733765,293.804077 
	C497.801788,308.966705 489.309875,323.870422 482.137604,339.384277 
	C477.469208,349.482056 474.938751,360.489136 476.689606,371.953308 
	C478.553345,384.156555 486.118469,391.855530 498.407501,394.038269 
	C512.085571,396.467743 525.261780,393.734711 538.279236,390.026367 
	C570.755249,380.774567 600.175781,364.897095 628.781799,347.447601 
	C666.092896,324.688049 700.986328,298.570770 734.223083,270.220093 
	C734.468567,270.010712 734.621460,269.692719 735.316345,269.063110 
	C744.369141,261.181335 753.010925,253.758362 761.439941,246.101135 
	C765.562317,242.356171 769.288879,238.175385 773.527344,234.113922 
	C775.730042,232.415878 777.731873,230.923752 779.448914,229.155228 
	C791.827698,216.405579 804.314758,203.754440 816.421631,190.750122 
	C822.957581,183.729721 828.812317,176.075150 835.282715,168.617218 
	C841.380310,161.311127 847.291626,154.187775 852.906921,146.838226 
	C855.676697,143.213104 857.899719,139.170227 860.370178,135.316406 
	C864.323975,129.825516 868.593140,124.531860 872.173889,118.807602 
	C884.046936,99.826973 894.942017,80.346901 898.396484,57.766968 
	C900.110901,46.561142 898.880676,35.925560 889.014832,28.471233 
	C881.757629,22.987909 873.085449,22.131538 864.312073,22.566422 
	C840.203430,23.761456 818.287109,32.581783 796.792786,42.546551 
	C765.430420,57.086189 736.209045,75.313560 707.176636,95.026176 
	C706.302734,89.694405 706.150574,84.388954 705.998413,79.083504 
	C705.998413,79.083504 706.319092,78.861107 706.768311,78.817657 
	C707.533691,78.384781 707.849792,77.995346 708.165894,77.605896 
	C748.581848,50.006428 790.645203,25.518120 837.447693,10.233500 
	C847.989380,6.790810 858.908691,4.504184 869.827087,1.342681 
	C870.000000,1.000000 870.500000,1.000000 870.810791,1.384993 
	C873.734741,1.858702 876.347595,1.954956 878.961060,2.034665 
	C885.736511,2.241317 892.512085,2.440683 899.287659,2.642956 
	C920.986145,5.814223 933.504333,22.871317 931.573303,45.453648 
	C929.612305,68.386330 921.048279,89.045166 909.877808,108.556396 
	C899.910706,125.965714 888.301758,142.435135 877.413940,159.317169 
	C876.336609,160.987610 875.236084,162.643158 873.712524,164.728333 
	C869.961121,169.266418 866.670471,173.403931 863.320496,177.492798 
	C855.260254,187.330872 847.172241,197.146164 838.766296,207.064667 
	C827.799377,218.352341 817.183044,229.566605 806.514343,240.730774 
	C801.380005,246.103607 796.146851,251.381943 790.635376,256.834656 
	C778.897705,267.168243 767.507874,277.398193 756.059143,287.561859 
	C749.097717,293.741943 742.045471,299.819702 735.034058,305.943420 
z"/>
<path fill="#282425" opacity="1.000000" stroke="none" 
	d="
M1281.000000,362.531342 
	C1275.841675,364.379333 1272.383789,362.759094 1269.543579,357.984985 
	C1265.675781,351.483734 1260.978638,345.476013 1256.044434,338.407471 
	C1256.044434,347.113190 1256.044434,354.831543 1256.044434,362.940796 
	C1252.964722,362.940796 1250.248657,362.940796 1247.215088,362.940796 
	C1247.215088,349.795990 1247.215088,336.570923 1247.215088,323.376923 
	C1252.292236,321.801849 1255.549927,323.418488 1258.314941,327.961060 
	C1262.265625,334.451813 1266.977905,340.478882 1271.901611,347.465454 
	C1271.901611,339.011383 1271.901611,331.340698 1271.901611,322.928284 
	C1274.927368,322.928284 1277.508667,322.928284 1280.545044,322.964142 
	C1281.000000,336.020905 1281.000000,349.041779 1281.000000,362.531342 
z"/>
<path fill="#928E8F" opacity="1.000000" stroke="none" 
	d="
M1281.000000,286.531342 
	C1280.837524,287.043243 1280.674927,287.086456 1280.259277,286.604736 
	C1280.004028,259.249298 1280.010254,232.418793 1279.998169,205.588303 
	C1279.974121,152.094879 1279.940063,98.601448 1279.910034,45.108021 
	C1280.089722,45.068588 1280.269287,45.029160 1280.724365,44.994865 
	C1281.000000,125.354225 1281.000000,205.708450 1281.000000,286.531342 
z"/>
<path fill="#F8CE5D" opacity="1.000000" stroke="none" 
	d="
M899.128723,2.424800 
	C892.512085,2.440683 885.736511,2.241317 878.961060,2.034665 
	C876.347595,1.954956 873.734741,1.858702 871.060791,1.384993 
	C879.687561,1.000000 888.375183,1.000000 897.531372,0.999987 
	C898.323303,1.402197 898.646545,1.804421 899.128723,2.424800 
z"/>
<path fill="#252122" opacity="1.000000" stroke="none" 
	d="
M388.955750,149.942200 
	C378.475220,151.265518 368.473175,152.589310 358.201111,153.948837 
	C358.201111,199.068985 358.201111,242.961365 358.201111,287.078918 
	C345.495972,287.078918 333.234924,287.078918 320.632263,287.078918 
	C320.632263,207.509293 320.632263,128.097076 320.632263,48.040318 
	C332.901855,46.997467 345.233459,45.949348 357.939026,44.869442 
	C357.939026,71.930244 357.939026,98.635963 357.939026,125.728310 
	C365.498627,123.543480 372.573151,121.181221 379.803070,119.478699 
	C392.845703,116.407356 406.048523,115.185646 419.458160,116.922218 
	C439.707886,119.544594 452.736877,132.725784 456.873505,155.905014 
	C458.299835,163.897476 459.020508,172.114014 459.079376,180.235321 
	C459.330444,214.895798 459.213348,249.558960 459.230530,284.221130 
	C459.230927,285.030151 459.230621,285.839203 459.230621,286.978333 
	C446.572754,286.978333 434.193207,286.978333 421.289062,286.978333 
	C421.289062,285.032654 421.291077,283.242371 421.288757,281.452118 
	C421.246063,248.290421 421.211792,215.128708 421.140686,181.967072 
	C421.135712,179.639893 421.031799,177.286484 420.678528,174.990707 
	C417.950806,157.263580 409.191040,150.269974 388.955750,149.942200 
z"/>
<path fill="#252122" opacity="1.000000" stroke="none" 
	d="
M704.289124,97.134338 
	C704.250000,154.783890 704.210571,212.433456 704.172241,270.083008 
	C704.168579,275.568665 704.171753,281.054321 704.171753,286.923920 
	C691.611938,286.923920 679.238525,286.923920 666.576904,286.923920 
	C666.576904,207.487213 666.576904,128.072662 666.576904,48.042484 
	C678.845032,46.997673 691.185913,45.946667 704.196411,44.838631 
	C704.196411,56.114876 704.196411,67.042427 704.102051,78.844765 
	C704.101562,85.524483 704.195312,91.329407 704.289124,97.134338 
z"/>
<path fill="#262122" opacity="1.000000" stroke="none" 
	d="
M773.194580,234.191864 
	C769.288879,238.175385 765.562317,242.356171 761.439941,246.101135 
	C753.010925,253.758362 744.369141,261.181335 735.498230,268.761871 
	C735.181396,218.925385 735.181396,169.027832 735.181396,118.802856 
	C744.711975,118.802856 753.977112,118.802856 763.783936,118.802856 
	C764.776245,122.416977 765.853210,126.339203 766.676636,129.338089 
	C779.368835,125.347954 791.578857,120.476868 804.250610,117.757179 
	C825.578979,113.179512 844.919739,117.344467 860.117493,135.033920 
	C857.899719,139.170227 855.676697,143.213104 852.906921,146.838226 
	C847.291626,154.187775 841.380310,161.311127 835.129517,168.339966 
	C831.683533,162.522354 827.468933,158.293304 821.354736,156.063400 
	C805.087158,150.130417 789.157349,152.538361 773.194580,157.353195 
	C773.194580,183.304993 773.194580,208.748428 773.194580,234.191864 
z"/>
<path fill="#252122" opacity="1.000000" stroke="none" 
	d="
M591.488037,127.466644 
	C593.805420,133.452713 593.962463,133.485229 598.795105,129.921021 
	C613.968689,118.730080 631.124451,115.169495 649.868103,116.323380 
	C649.868103,128.843994 649.868103,140.926254 649.868103,153.480316 
	C632.845703,150.965820 616.162476,150.093369 600.140259,158.757568 
	C600.140259,201.182617 600.140259,243.949921 600.140259,287.011353 
	C587.424988,287.011353 575.059692,287.011353 562.425415,287.011353 
	C562.425415,230.863861 562.425415,174.968430 562.425415,118.487610 
	C570.565613,118.487610 578.520264,118.386566 586.465027,118.620026 
	C587.420227,118.648102 588.578125,120.355560 589.188721,121.521942 
	C590.107178,123.276405 590.625061,125.240501 591.488037,127.466644 
z"/>
<path fill="#231F20" opacity="1.000000" stroke="none" 
	d="
M506.016205,287.063080 
	C505.562073,287.059906 505.107910,287.056763 503.865662,287.000610 
	C500.025726,286.990692 496.973907,287.033813 493.922058,287.076935 
	C493.600464,287.070282 493.284729,287.023804 492.740326,286.979431 
	C492.437500,280.534332 492.312347,274.047363 492.310028,267.560333 
	C492.293121,219.941895 492.300873,172.323441 492.300781,124.704994 
	C492.300781,122.893356 492.300751,121.081718 492.300751,118.880058 
	C505.007843,118.880058 517.377991,118.880058 529.957397,118.880058 
	C529.957397,174.849426 529.957397,230.740479 529.957397,287.313751 
	C523.675598,287.313751 517.425293,287.313751 510.317322,287.155212 
	C508.311829,287.018799 507.164032,287.040924 506.016205,287.063080 
z"/>
<path fill="#262223" opacity="1.000000" stroke="none" 
	d="
M503.337219,97.883850 
	C495.621613,95.814240 491.135071,90.957115 489.957031,83.631035 
	C489.148315,78.601868 488.795685,73.333229 489.329956,68.287125 
	C490.644897,55.867096 498.685974,49.862930 512.410522,50.305145 
	C526.753723,50.767300 533.613098,57.694645 533.980591,72.089081 
	C533.984802,72.255287 533.987976,72.421524 533.991150,72.587753 
	C534.384399,93.167450 524.107727,101.788933 503.337219,97.883850 
z"/>
<path fill="#D7B767" opacity="1.000000" stroke="none" 
	d="
M704.592590,97.110580 
	C704.195312,91.329407 704.101562,85.524483 704.135254,79.305374 
	C704.651794,78.908440 705.040833,78.925682 705.714111,79.013214 
	C706.150574,84.388954 706.302734,89.694405 706.860718,95.160545 
	C706.476379,95.909760 705.686218,96.498291 704.592590,97.110580 
z"/>
<path fill="#8B8478" opacity="1.000000" stroke="none" 
	d="
M506.244812,287.260925 
	C507.164032,287.040924 508.311829,287.018799 509.866211,287.148468 
	C509.565735,288.372742 508.858673,289.445221 507.958313,290.623108 
	C507.334442,289.638641 506.903931,288.548706 506.244812,287.260925 
z"/>
<path fill="#8B8478" opacity="1.000000" stroke="none" 
	d="
M505.827057,293.811798 
	C505.733734,293.804077 505.589966,293.573425 505.589966,293.573425 
	C505.589966,293.573425 505.788727,293.338959 505.886597,293.373779 
	C505.984436,293.408600 506.097351,293.603668 506.097351,293.603668 
	C506.097351,293.603668 505.920380,293.819519 505.827057,293.811798 
z"/>
<path fill="#D7B767" opacity="1.000000" stroke="none" 
	d="
M707.904297,77.576691 
	C707.849792,77.995346 707.533691,78.384781 706.951599,78.750648 
	C707.004639,78.333878 707.323669,77.940681 707.904297,77.576691 
z"/>
<path fill="#252122" opacity="1.000000" stroke="none" 
	d="
M1048.040771,201.013916 
	C1048.232788,216.065521 1047.142700,230.480469 1042.824829,244.472839 
	C1035.481812,268.267944 1019.989685,283.413208 995.353699,288.602386 
	C978.956970,292.056122 962.516235,291.935089 946.348999,287.580414 
	C922.184265,281.071503 907.800476,264.623413 901.991394,240.832138 
	C895.476013,214.148605 895.315613,187.279037 903.763123,160.940613 
	C912.373840,134.093216 931.911621,120.361855 959.380188,117.025467 
	C973.239441,115.342079 986.999084,115.785301 1000.502563,119.487785 
	C1024.644897,126.107338 1038.376099,142.845795 1043.800781,166.422714 
	C1046.354980,177.523941 1046.687256,189.136398 1048.040771,201.013916 
M953.109192,151.466583 
	C949.186523,156.524567 944.064880,161.074097 941.648987,166.771042 
	C938.720886,173.675812 937.243530,181.480499 936.615723,189.018829 
	C935.148865,206.632553 934.759583,224.293640 941.622681,241.185104 
	C946.891357,254.152176 957.215088,260.858643 972.164734,260.927277 
	C987.491943,260.997589 998.673218,254.666245 1003.318298,241.411606 
	C1012.364441,215.599136 1011.960510,189.458008 1003.278748,163.590134 
	C1000.674438,155.830399 994.895325,150.293823 986.958923,147.850113 
	C975.532166,144.331711 964.303528,144.800278 953.109192,151.466583 
z"/>
<path fill="#252122" opacity="1.000000" stroke="none" 
	d="
M1215.885010,231.760010 
	C1212.276001,241.990479 1209.865723,252.407990 1204.946533,261.462433 
	C1196.997192,276.094116 1183.519897,284.292419 1167.396240,288.118866 
	C1153.595825,291.394073 1139.669067,291.735809 1125.708252,289.589020 
	C1096.680908,285.125336 1078.530273,268.351135 1071.695190,239.993469 
	C1065.419922,213.958160 1065.497070,187.727509 1073.289795,161.968460 
	C1081.284546,135.541138 1102.156494,119.460724 1129.713257,116.920853 
	C1143.445923,115.655144 1157.008545,115.822823 1170.354248,119.473221 
	C1194.726440,126.139618 1208.184570,143.107162 1213.994873,166.811874 
	C1219.221680,188.135117 1219.055054,209.712646 1215.885010,231.760010 
M1171.960083,160.698715 
	C1167.964478,156.827042 1164.599487,151.729019 1159.864746,149.294968 
	C1138.812012,138.471924 1114.975830,149.703384 1109.351807,172.754517 
	C1104.378418,193.139236 1104.403931,213.672867 1109.075806,234.109985 
	C1112.622192,249.623245 1121.877930,258.276733 1136.612183,260.561340 
	C1154.140015,263.279114 1167.474243,255.765198 1174.122803,239.638947 
	C1178.607178,228.761932 1179.259766,217.306381 1179.328979,205.818359 
	C1179.420410,190.647797 1179.180542,175.456482 1171.960083,160.698715 
z"/>
<path fill="#231F20" opacity="1.000000" stroke="none" 
	d="
M1279.482422,45.055355 
	C1279.940063,98.601448 1279.974121,152.094879 1279.998169,205.588303 
	C1280.010254,232.418793 1280.004028,259.249298 1280.013062,286.549713 
	C1267.745239,287.019653 1255.470337,287.019653 1242.949463,287.019653 
	C1242.949463,207.421783 1242.949463,127.998543 1242.949463,48.019516 
	C1254.936157,47.017948 1266.995483,46.010319 1279.482422,45.055355 
z"/>
<path fill="#252121" opacity="1.000000" stroke="none" 
	d="
M839.095398,206.970657 
	C847.172241,197.146164 855.260254,187.330872 863.320496,177.492798 
	C866.670471,173.403931 869.961121,169.266418 873.602173,165.054932 
	C879.673706,191.268982 880.104370,217.571259 871.926208,243.393997 
	C861.941467,274.921082 837.579529,291.383484 804.436951,289.713684 
	C794.154785,289.195648 783.908325,287.967438 773.208801,287.025909 
	C773.208801,312.347321 773.208801,337.886963 773.208801,363.792786 
	C760.459839,365.186798 748.120300,366.536041 735.108704,367.958801 
	C735.108704,347.408661 735.108704,327.147919 735.071411,306.415283 
	C742.045471,299.819702 749.097717,293.741943 756.059143,287.561859 
	C767.507874,277.398193 778.897705,267.168243 791.109314,256.882568 
	C795.067200,256.808197 798.231689,256.919250 801.388428,256.810059 
	C819.493713,256.183960 829.682068,249.216461 834.757812,232.407135 
	C837.224976,224.236694 837.711975,215.468338 839.095398,206.970657 
z"/>
<path fill="#2B2829" opacity="1.000000" stroke="none" 
	d="
M1235.168823,349.040527 
	C1232.760254,360.060181 1226.833008,364.429230 1215.365479,364.003906 
	C1205.686157,363.644928 1200.109497,358.451447 1198.748169,348.243835 
	C1198.378784,345.473694 1198.292114,342.594147 1198.586914,339.819153 
	C1200.021118,326.317780 1208.224976,320.356110 1221.648804,322.722137 
	C1228.886475,323.997833 1233.370850,328.294006 1234.701172,335.284607 
	C1235.524048,339.609131 1235.098877,344.171082 1235.168823,349.040527 
M1207.934937,348.012543 
	C1209.354614,354.944366 1211.891846,357.365265 1217.503418,357.141937 
	C1222.842773,356.929474 1225.640747,353.818939 1226.048584,346.996765 
	C1226.265015,343.377533 1226.251465,339.649536 1225.618652,336.099579 
	C1224.892456,332.026855 1222.319946,329.272064 1217.798584,329.053192 
	C1213.200562,328.830597 1209.880615,330.892639 1208.905762,335.325928 
	C1208.064575,339.151764 1208.157593,343.183075 1207.934937,348.012543 
z"/>
<path fill="#2A2627" opacity="1.000000" stroke="none" 
	d="
M883.791748,347.267212 
	C883.752258,344.861633 883.595642,342.863403 883.742249,340.887665 
	C884.810425,326.490295 893.188110,320.140411 907.308289,322.814240 
	C914.127197,324.105530 918.289551,328.226135 919.855713,334.734070 
	C920.698303,338.234894 920.965210,341.984924 920.815918,345.594543 
	C920.179565,360.983093 906.136414,369.012451 892.367249,361.983063 
	C886.561157,359.018951 884.521301,353.734314 883.791748,347.267212 
M899.176880,356.900940 
	C906.333496,357.432678 909.407288,356.419159 910.242432,351.385468 
	C911.142334,345.961731 911.365173,340.090729 910.253296,334.754456 
	C908.919006,328.350525 900.313843,326.942657 895.883667,331.802490 
	C890.765259,337.417267 892.244568,351.955261 899.176880,356.900940 
z"/>
<path fill="#292526" opacity="1.000000" stroke="none" 
	d="
M1015.024658,327.019897 
	C1022.279175,321.183441 1030.091797,320.919403 1037.847046,324.253601 
	C1045.479370,327.534943 1046.959717,334.675751 1047.145996,342.156921 
	C1047.569580,359.174683 1036.762329,368.094116 1021.415588,362.856323 
	C1017.983887,361.685120 1014.060303,358.734314 1012.612976,355.572845 
	C1008.246094,346.034485 1008.286682,336.266510 1015.024658,327.019897 
M1036.695801,334.214966 
	C1034.922363,330.124603 1031.667725,328.590057 1027.427124,329.108978 
	C1023.013916,329.649048 1020.417786,332.563568 1020.028381,336.693726 
	C1019.583313,341.414124 1019.470215,346.306458 1020.230469,350.957764 
	C1020.905701,355.088745 1024.101318,357.249023 1028.633789,357.210876 
	C1033.183228,357.172607 1036.328247,354.943848 1036.847290,350.767059 
	C1037.491333,345.584015 1036.969604,340.256104 1036.695801,334.214966 
z"/>
<path fill="#2C292A" opacity="1.000000" stroke="none" 
	d="
M1085.280029,327.885071 
	C1089.395264,336.866089 1087.702759,342.304718 1080.355469,346.424835 
	C1083.464722,351.673676 1086.584106,356.939545 1089.831421,362.421539 
	C1080.792603,364.609375 1080.177856,364.299438 1077.162354,356.659393 
	C1074.216431,349.194977 1073.344727,348.508881 1067.192383,349.188202 
	C1067.192383,353.732452 1067.192383,358.331451 1067.192383,363.130676 
	C1064.181274,363.130676 1061.589355,363.130676 1058.721436,363.130676 
	C1058.721436,349.704437 1058.721436,336.498993 1058.721436,322.767303 
	C1067.806641,323.799591 1077.281372,320.520294 1085.280029,327.885071 
M1067.170654,335.571045 
	C1067.170654,337.694275 1067.170654,339.817505 1067.170654,343.628235 
	C1071.188721,341.892181 1074.590088,341.105225 1076.959106,339.099091 
	C1078.073853,338.154968 1078.110962,333.700775 1077.050659,332.876099 
	C1074.584106,330.957733 1071.155029,330.276978 1067.171509,328.727203 
	C1067.171509,331.723114 1067.171509,333.179901 1067.170654,335.571045 
z"/>
<path fill="#282526" opacity="1.000000" stroke="none" 
	d="
M932.069397,330.075928 
	C932.064148,327.602417 932.064148,325.619598 932.064148,322.615143 
	C938.819580,323.024780 945.382874,323.189758 951.888428,323.890686 
	C957.131470,324.455627 960.170532,327.769165 960.910217,333.041718 
	C961.794312,339.344025 959.985168,343.134338 954.811768,345.894684 
	C954.278198,346.179382 953.716064,346.410431 953.975769,346.289337 
	C957.212646,351.729797 960.349182,357.001526 963.913269,362.991943 
	C959.805237,362.991943 956.735474,362.991943 953.599731,362.991943 
	C949.732727,358.308716 951.705933,348.369202 941.110962,348.725647 
	C941.110962,353.586761 941.110962,358.210083 941.110962,363.080933 
	C938.024170,363.080933 935.259888,363.080933 932.074646,363.080933 
	C932.074646,352.126160 932.074646,341.346375 932.069397,330.075928 
M951.819458,336.319244 
	C950.947021,330.496094 949.479370,329.645233 941.219482,330.318481 
	C941.219482,334.202576 941.219482,338.105164 941.219482,342.158539 
	C945.737732,342.248322 950.250793,342.892975 951.819458,336.319244 
z"/>
<path fill="#292526" opacity="1.000000" stroke="none" 
	d="
M1127.624023,344.271912 
	C1130.005249,350.544464 1132.241211,356.457092 1134.479614,362.375885 
	C1127.114014,364.794952 1125.133911,364.089691 1122.763794,357.726990 
	C1121.795776,355.128357 1120.433105,354.244995 1117.641479,354.249664 
	C1109.029785,354.264069 1109.030640,354.131683 1106.188843,361.954407 
	C1106.077515,362.260742 1105.902100,362.543915 1105.649048,363.055237 
	C1102.692383,363.055237 1099.637695,363.055237 1096.056885,363.055237 
	C1100.789673,350.033325 1105.245117,337.370270 1110.151855,324.884583 
	C1110.655273,323.603760 1113.856812,322.847839 1115.808350,322.843842 
	C1117.325684,322.840729 1119.662476,324.028625 1120.226318,325.308105 
	C1122.908081,331.392914 1125.107788,337.690277 1127.624023,344.271912 
M1119.471680,347.509949 
	C1118.207031,343.009125 1116.942383,338.508301 1115.677734,334.007477 
	C1115.236694,334.025970 1114.795654,334.044464 1114.354614,334.062958 
	C1112.930786,338.753876 1111.507080,343.444794 1109.881104,348.801636 
	C1113.587646,348.554840 1116.358398,348.370361 1119.471680,347.509949 
z"/>
<path fill="#2A2627" opacity="1.000000" stroke="none" 
	d="
M973.275269,337.009155 
	C973.275330,332.217926 973.275330,327.924377 973.275330,322.484680 
	C980.633911,323.034027 987.719055,323.058136 994.606873,324.236084 
	C1000.166443,325.186951 1002.439392,329.933289 1002.127869,337.087830 
	C1001.846008,343.558105 998.435974,347.801331 992.199768,348.890533 
	C989.126221,349.427368 985.945801,349.351715 982.344116,349.583466 
	C982.344116,354.018158 982.344116,358.410126 982.344116,363.062622 
	C979.138123,363.062622 976.409241,363.062622 973.275269,363.062622 
	C973.275269,354.365173 973.275269,345.936035 973.275269,337.009155 
M986.138123,330.046234 
	C984.884277,330.046234 983.630493,330.046234 982.428650,330.046234 
	C982.428650,334.678558 982.428650,338.838104 982.428650,342.968994 
	C989.926147,343.348907 992.325378,342.212738 992.859436,338.002838 
	C993.421204,333.575195 991.886353,330.563477 986.138123,330.046234 
z"/>
<path fill="#2B2829" opacity="1.000000" stroke="none" 
	d="
M848.792603,359.244446 
	C842.666382,351.678253 841.820190,338.582764 846.737549,330.856171 
	C851.082642,324.028961 861.745789,320.610565 871.324768,322.899139 
	C876.447144,324.122955 873.261475,327.848785 874.137390,330.620941 
	C867.731140,330.304810 861.196411,328.000000 856.239563,332.666504 
	C854.156982,334.627106 853.234009,338.553375 853.044556,341.662842 
	C852.267822,354.415283 855.233826,356.284058 874.525391,355.863190 
	C874.525391,357.956146 874.525391,360.051025 874.525391,362.738342 
	C865.665527,364.499207 856.984314,365.538055 848.792603,359.244446 
z"/>
<path fill="#2A2728" opacity="1.000000" stroke="none" 
	d="
M1161.366089,330.004700 
	C1158.056519,329.507812 1158.227661,331.326508 1158.239258,333.293884 
	C1158.297485,343.102570 1158.265869,352.911743 1158.265869,363.029388 
	C1155.422607,363.029388 1152.834229,363.029388 1149.701904,363.029388 
	C1149.701904,352.251617 1149.701904,341.360016 1149.701904,330.047028 
	C1145.594482,330.047028 1142.016113,330.047028 1138.251221,330.047028 
	C1138.251221,327.542572 1138.251221,325.467926 1138.251221,323.149078 
	C1148.712402,323.149078 1158.972900,323.149078 1169.546509,323.149078 
	C1169.546509,325.283203 1169.546509,327.350464 1169.546509,330.015289 
	C1167.009399,330.015289 1164.413208,330.015289 1161.366089,330.004700 
z"/>
<path fill="#272425" opacity="1.000000" stroke="none" 
	d="
M1187.938965,350.987061 
	C1187.938965,355.271362 1187.938965,359.058502 1187.938965,363.077087 
	C1184.890259,363.077087 1182.284546,363.077087 1179.349121,363.077087 
	C1179.349121,349.961060 1179.349121,336.760681 1179.349121,323.235443 
	C1181.971191,323.235443 1184.686157,323.235443 1187.938965,323.235443 
	C1187.938965,332.317810 1187.938965,341.403839 1187.938965,350.987061 
z"/>
<path fill="#FDFDFA" opacity="1.000000" stroke="none" 
	d="
M773.527344,234.113922 
	C773.194580,208.748428 773.194580,183.304993 773.194580,157.353195 
	C789.157349,152.538361 805.087158,150.130417 821.354736,156.063400 
	C827.468933,158.293304 831.683533,162.522354 834.821167,168.429443 
	C828.812317,176.075150 822.957581,183.729721 816.421631,190.750122 
	C804.314758,203.754440 791.827698,216.405579 779.448914,229.155228 
	C777.731873,230.923752 775.730042,232.415878 773.527344,234.113922 
z"/>
<path fill="#FBFAF5" opacity="1.000000" stroke="none" 
	d="
M838.766296,207.064667 
	C837.711975,215.468338 837.224976,224.236694 834.757812,232.407135 
	C829.682068,249.216461 819.493713,256.183960 801.388428,256.810059 
	C798.231689,256.919250 795.067200,256.808197 791.432373,256.750977 
	C796.146851,251.381943 801.380005,246.103607 806.514343,240.730774 
	C817.183044,229.566605 827.799377,218.352341 838.766296,207.064667 
z"/>
<path fill="#8B8478" opacity="1.000000" stroke="none" 
	d="
M494.262146,287.280151 
	C496.973907,287.033813 500.025726,286.990692 503.525208,287.011169 
	C500.849274,287.210938 497.725769,287.347168 494.262146,287.280151 
z"/>
<path fill="#FEFEFE" opacity="1.000000" stroke="none" 
	d="
M953.418457,151.260834 
	C964.303528,144.800278 975.532166,144.331711 986.958923,147.850113 
	C994.895325,150.293823 1000.674438,155.830399 1003.278748,163.590134 
	C1011.960510,189.458008 1012.364441,215.599136 1003.318298,241.411606 
	C998.673218,254.666245 987.491943,260.997589 972.164734,260.927277 
	C957.215088,260.858643 946.891357,254.152176 941.622681,241.185104 
	C934.759583,224.293640 935.148865,206.632553 936.615723,189.018829 
	C937.243530,181.480499 938.720886,173.675812 941.648987,166.771042 
	C944.064880,161.074097 949.186523,156.524567 953.418457,151.260834 
z"/>
<path fill="#FEFEFE" opacity="1.000000" stroke="none" 
	d="
M1172.139893,161.024155 
	C1179.180542,175.456482 1179.420410,190.647797 1179.328979,205.818359 
	C1179.259766,217.306381 1178.607178,228.761932 1174.122803,239.638947 
	C1167.474243,255.765198 1154.140015,263.279114 1136.612183,260.561340 
	C1121.877930,258.276733 1112.622192,249.623245 1109.075806,234.109985 
	C1104.403931,213.672867 1104.378418,193.139236 1109.351807,172.754517 
	C1114.975830,149.703384 1138.812012,138.471924 1159.864746,149.294968 
	C1164.599487,151.729019 1167.964478,156.827042 1172.139893,161.024155 
z"/>
<path fill="#FBFBFB" opacity="1.000000" stroke="none" 
	d="
M1207.886230,347.568024 
	C1208.157593,343.183075 1208.064575,339.151764 1208.905762,335.325928 
	C1209.880615,330.892639 1213.200562,328.830597 1217.798584,329.053192 
	C1222.319946,329.272064 1224.892456,332.026855 1225.618652,336.099579 
	C1226.251465,339.649536 1226.265015,343.377533 1226.048584,346.996765 
	C1225.640747,353.818939 1222.842773,356.929474 1217.503418,357.141937 
	C1211.891846,357.365265 1209.354614,354.944366 1207.886230,347.568024 
z"/>
<path fill="#F9F9F9" opacity="1.000000" stroke="none" 
	d="
M898.793457,356.765930 
	C892.244568,351.955261 890.765259,337.417267 895.883667,331.802490 
	C900.313843,326.942657 908.919006,328.350525 910.253296,334.754456 
	C911.365173,340.090729 911.142334,345.961731 910.242432,351.385468 
	C909.407288,356.419159 906.333496,357.432678 898.793457,356.765930 
z"/>
<path fill="#F9F9F9" opacity="1.000000" stroke="none" 
	d="
M1036.823486,334.602875 
	C1036.969604,340.256104 1037.491333,345.584015 1036.847290,350.767059 
	C1036.328247,354.943848 1033.183228,357.172607 1028.633789,357.210876 
	C1024.101318,357.249023 1020.905701,355.088745 1020.230469,350.957764 
	C1019.470215,346.306458 1019.583313,341.414124 1020.028381,336.693726 
	C1020.417786,332.563568 1023.013916,329.649048 1027.427124,329.108978 
	C1031.667725,328.590057 1034.922363,330.124603 1036.823486,334.602875 
z"/>
<path fill="#F6F5F5" opacity="1.000000" stroke="none" 
	d="
M1067.171143,335.103882 
	C1067.171509,333.179901 1067.171509,331.723114 1067.171509,328.727203 
	C1071.155029,330.276978 1074.584106,330.957733 1077.050659,332.876099 
	C1078.110962,333.700775 1078.073853,338.154968 1076.959106,339.099091 
	C1074.590088,341.105225 1071.188721,341.892181 1067.170654,343.628235 
	C1067.170654,339.817505 1067.170654,337.694275 1067.171143,335.103882 
z"/>
<path fill="#F9F9F9" opacity="1.000000" stroke="none" 
	d="
M951.744751,336.704346 
	C950.250793,342.892975 945.737732,342.248322 941.219482,342.158539 
	C941.219482,338.105164 941.219482,334.202576 941.219482,330.318481 
	C949.479370,329.645233 950.947021,330.496094 951.744751,336.704346 
z"/>
<path fill="#E5E3E4" opacity="1.000000" stroke="none" 
	d="
M1119.300293,347.847900 
	C1116.358398,348.370361 1113.587646,348.554840 1109.881104,348.801636 
	C1111.507080,343.444794 1112.930786,338.753876 1114.354614,334.062958 
	C1114.795654,334.044464 1115.236694,334.025970 1115.677734,334.007477 
	C1116.942383,338.508301 1118.207031,343.009125 1119.300293,347.847900 
z"/>
<path fill="#F6F5F5" opacity="1.000000" stroke="none" 
	d="
M986.567871,330.082031 
	C991.886353,330.563477 993.421204,333.575195 992.859436,338.002838 
	C992.325378,342.212738 989.926147,343.348907 982.428650,342.968994 
	C982.428650,338.838104 982.428650,334.678558 982.428650,330.046234 
	C983.630493,330.046234 984.884277,330.046234 986.567871,330.082031 
z"/>
</svg>